<svg version="1.1" id="Layer_1" xmlns="http://www.w3.org/2000/svg" xmlns:xlink="http://www.w3.org/1999/xlink" x="0px" y="0px"
	 width="100%" viewBox="0 0 1080 1080" enable-background="new 0 0 1080 1080" xml:space="preserve">
<path fill="none" opacity="1.000000" stroke="none" 
	d="
M605.000000,1081.000000 
	C403.356537,1081.000000 202.213089,1081.000000 1.034820,1081.000000 
	C1.034820,721.064758 1.034820,361.129517 1.034820,1.097133 
	C360.893707,1.097133 720.787415,1.097133 1080.840576,1.097133 
	C1080.840576,360.999939 1080.840576,720.999939 1080.840576,1081.000000 
	C922.462402,1081.000000 763.981201,1081.000000 605.000000,1081.000000 
M437.668365,517.807800 
	C415.970123,509.317535 393.519958,503.796265 370.293396,502.159271 
	C314.369843,498.217926 262.905273,511.458832 216.657440,543.511169 
	C173.780167,573.227478 143.939926,613.048218 127.341171,662.373108 
	C112.474869,706.549744 111.011108,751.482849 122.795113,796.730164 
	C134.801529,842.831421 158.572357,881.861816 194.091858,913.443115 
	C265.398010,976.843323 366.034882,992.084167 451.954193,950.144714 
	C535.616028,909.307129 580.908264,840.567993 586.406616,747.771606 
	C590.395935,680.443970 566.816650,621.948486 520.309998,573.024048 
	C497.147278,548.657227 469.464752,530.768860 437.668365,517.807800 
M439.139679,150.629929 
	C422.157806,160.595795 407.408234,173.295563 394.651794,188.179337 
	C357.655304,231.345459 345.639984,282.011108 352.447754,337.326782 
	C358.217468,384.207794 379.988953,423.168671 416.241638,453.592346 
	C448.459808,480.630219 485.727356,495.147614 527.906799,495.943268 
	C554.392944,496.442902 580.894714,496.109589 607.389465,496.167267 
	C609.123291,496.171021 610.856873,496.322632 612.936340,496.421997 
	C612.314270,498.184570 611.889648,499.425659 611.439514,500.657501 
	C601.105896,528.935364 590.766113,557.210938 580.435974,585.490051 
	C577.468018,593.614807 574.388062,601.703918 571.702271,609.921448 
	C571.222839,611.388306 571.919617,613.950256 573.027466,614.982239 
	C573.801880,615.703613 576.259521,614.863220 577.852600,614.361938 
	C578.711975,614.091675 579.339905,613.073853 580.062744,612.383301 
	C619.578064,574.634827 659.061707,536.853027 698.700378,499.234528 
	C700.606812,497.425232 703.873840,496.165894 706.516357,496.149811 
	C740.175720,495.945068 773.839722,496.267792 807.495789,495.876129 
	C819.094666,495.741119 830.865356,494.995728 842.231018,492.821747 
	C894.520691,482.819885 935.099731,454.967072 963.833923,410.273956 
	C988.889343,371.303009 995.840637,328.241364 990.118530,282.900574 
	C985.075317,242.938965 968.017395,208.384445 939.937378,179.663513 
	C903.261292,142.150314 858.188049,124.118721 805.812561,124.117897 
	C716.328674,124.116486 626.844849,124.150223 537.360962,124.100845 
	C502.463379,124.081596 469.828522,132.341751 439.139679,150.629929 
z"/>
<path fill="#F3F3F4" opacity="1.000000" stroke="none" 
	d="
M438.037598,517.920654 
	C469.464752,530.768860 497.147278,548.657227 520.309998,573.024048 
	C566.816650,621.948486 590.395935,680.443970 586.406616,747.771606 
	C580.908264,840.567993 535.616028,909.307129 451.954193,950.144714 
	C366.034882,992.084167 265.398010,976.843323 194.091858,913.443115 
	C158.572357,881.861816 134.801529,842.831421 122.795113,796.730164 
	C111.011108,751.482849 112.474869,706.549744 127.341171,662.373108 
	C143.939926,613.048218 173.780167,573.227478 216.657440,543.511169 
	C262.905273,511.458832 314.369843,498.217926 370.293396,502.159271 
	C393.519958,503.796265 415.970123,509.317535 438.037598,517.920654 
M289.077484,669.560974 
	C283.881989,675.821899 278.022522,681.648438 273.597076,688.413208 
	C241.024017,738.203979 266.493195,807.583130 323.451233,824.805359 
	C369.481842,838.723572 415.707428,817.429199 435.531525,773.174255 
	C459.202484,720.331604 423.882080,655.548523 366.638031,646.898621 
	C337.591583,642.509583 311.866150,649.834412 289.077484,669.560974 
z"/>
<path fill="#070202" opacity="1.000000" stroke="none" 
	d="
M439.439941,150.421265 
	C469.828522,132.341751 502.463379,124.081596 537.360962,124.100845 
	C626.844849,124.150223 716.328674,124.116486 805.812561,124.117897 
	C858.188049,124.118721 903.261292,142.150314 939.937378,179.663513 
	C968.017395,208.384445 985.075317,242.938965 990.118530,282.900574 
	C995.840637,328.241364 988.889343,371.303009 963.833923,410.273956 
	C935.099731,454.967072 894.520691,482.819885 842.231018,492.821747 
	C830.865356,494.995728 819.094666,495.741119 807.495789,495.876129 
	C773.839722,496.267792 740.175720,495.945068 706.516357,496.149811 
	C703.873840,496.165894 700.606812,497.425232 698.700378,499.234528 
	C659.061707,536.853027 619.578064,574.634827 580.062744,612.383301 
	C579.339905,613.073853 578.711975,614.091675 577.852600,614.361938 
	C576.259521,614.863220 573.801880,615.703613 573.027466,614.982239 
	C571.919617,613.950256 571.222839,611.388306 571.702271,609.921448 
	C574.388062,601.703918 577.468018,593.614807 580.435974,585.490051 
	C590.766113,557.210938 601.105896,528.935364 611.439514,500.657501 
	C611.889648,499.425659 612.314270,498.184570 612.936340,496.421997 
	C610.856873,496.322632 609.123291,496.171021 607.389465,496.167267 
	C580.894714,496.109589 554.392944,496.442902 527.906799,495.943268 
	C485.727356,495.147614 448.459808,480.630219 416.241638,453.592346 
	C379.988953,423.168671 358.217468,384.207794 352.447754,337.326782 
	C345.639984,282.011108 357.655304,231.345459 394.651794,188.179337 
	C407.408234,173.295563 422.157806,160.595795 439.439941,150.421265 
M587.094788,595.286865 
	C623.157471,560.922852 659.253906,526.593994 695.216614,492.125763 
	C697.994080,489.463745 700.723816,488.530029 704.444702,488.542694 
	C737.936523,488.656433 771.429626,488.721619 804.920837,488.535431 
	C814.057495,488.484680 823.254761,488.054565 832.311218,486.906891 
	C866.189636,482.613770 896.635864,469.617920 922.134705,447.052307 
	C978.590881,397.090454 996.001282,333.860321 977.948547,262.109833 
	C958.133728,183.356049 886.929626,131.649872 808.166687,131.930161 
	C716.855591,132.255081 625.542480,131.991898 534.230225,132.040314 
	C528.744995,132.043228 523.235779,132.302811 517.778564,132.850189 
	C464.572784,138.186935 422.096954,162.682220 390.842590,205.810776 
	C361.334564,246.529449 353.248322,292.699371 361.108734,341.529053 
	C370.329895,398.811493 401.848022,441.009247 452.485321,468.790833 
	C478.541321,483.086121 506.930267,488.672455 536.526184,488.619141 
	C563.186646,488.571136 589.847168,488.597565 616.507690,488.619598 
	C622.429382,488.624481 623.642273,490.386505 621.600098,496.009399 
	C617.918457,506.146454 614.145325,516.250244 610.459229,526.385803 
	C602.180908,549.148376 593.932312,571.921814 585.220093,595.062561 
	C585.314026,595.597107 585.407898,596.131714 585.501831,596.666260 
	C585.854675,596.342224 586.207581,596.018188 587.094788,595.286865 
z"/>
<path fill="#D30101" opacity="1.000000" stroke="none" 
	d="
M289.339874,669.323608 
	C311.866150,649.834412 337.591583,642.509583 366.638031,646.898621 
	C423.882080,655.548523 459.202484,720.331604 435.531525,773.174255 
	C415.707428,817.429199 369.481842,838.723572 323.451233,824.805359 
	C266.493195,807.583130 241.024017,738.203979 273.597076,688.413208 
	C278.022522,681.648438 283.881989,675.821899 289.339874,669.323608 
z"/>
<path fill="#FEFEFE" opacity="1.000000" stroke="none" 
	d="
M585.671692,594.690857 
	C593.932312,571.921814 602.180908,549.148376 610.459229,526.385803 
	C614.145325,516.250244 617.918457,506.146454 621.600098,496.009399 
	C623.642273,490.386505 622.429382,488.624481 616.507690,488.619598 
	C589.847168,488.597565 563.186646,488.571136 536.526184,488.619141 
	C506.930267,488.672455 478.541321,483.086121 452.485321,468.790833 
	C401.848022,441.009247 370.329895,398.811493 361.108734,341.529053 
	C353.248322,292.699371 361.334564,246.529449 390.842590,205.810776 
	C422.096954,162.682220 464.572784,138.186935 517.778564,132.850189 
	C523.235779,132.302811 528.744995,132.043228 534.230225,132.040314 
	C625.542480,131.991898 716.855591,132.255081 808.166687,131.930161 
	C886.929626,131.649872 958.133728,183.356049 977.948547,262.109833 
	C996.001282,333.860321 978.590881,397.090454 922.134705,447.052307 
	C896.635864,469.617920 866.189636,482.613770 832.311218,486.906891 
	C823.254761,488.054565 814.057495,488.484680 804.920837,488.535431 
	C771.429626,488.721619 737.936523,488.656433 704.444702,488.542694 
	C700.723816,488.530029 697.994080,489.463745 695.216614,492.125763 
	C659.253906,526.593994 623.157471,560.922852 586.613037,595.232910 
	C585.978149,595.016296 585.824951,594.853577 585.671692,594.690857 
M647.395752,361.042908 
	C641.073242,360.941132 638.694885,362.805756 637.306213,369.085236 
	C634.854370,374.914581 639.495850,378.633087 640.621216,383.028015 
	C636.980957,382.483704 634.066711,383.641022 632.069946,386.786133 
	C629.864319,390.260162 631.670715,393.201233 633.564026,395.963837 
	C643.884521,411.022461 654.283569,426.027252 664.626038,441.070831 
	C666.175354,443.324280 667.568909,445.684814 668.260132,447.794464 
	C667.644592,447.556824 667.047485,447.191925 666.410889,447.100037 
	C648.818665,444.560211 640.045654,435.955261 636.842346,418.483246 
	C636.587158,417.091370 634.453796,416.043884 633.193298,414.836365 
	C632.116943,416.210938 630.187805,417.529602 630.093445,418.968567 
	C628.866333,437.682495 644.038086,453.434143 663.296509,454.009064 
	C667.955322,454.148132 669.905762,452.626556 669.713745,447.853027 
	C677.474182,454.459869 686.163940,459.274994 696.483765,459.927155 
	C730.091797,462.050964 752.450073,430.577637 739.686218,399.444489 
	C735.720276,389.770844 732.044556,379.976898 728.326050,370.203705 
	C726.792419,366.172852 725.586487,362.017700 724.066040,357.981384 
	C722.640564,354.197449 719.487732,353.255554 715.919312,353.987823 
	C712.361633,354.717865 710.601196,357.184204 710.863464,360.885193 
	C710.980469,362.536224 711.155334,364.192963 711.453735,365.819611 
	C712.680603,372.508087 713.791443,379.225922 715.314331,385.848022 
	C715.918396,388.474854 715.425293,389.999237 712.725220,390.502563 
	C712.197998,389.939819 711.670715,389.377106 711.022400,388.133148 
	C700.537109,372.818878 690.067261,357.493927 679.552612,342.199829 
	C677.597168,339.355591 675.209595,337.030090 671.312866,337.910004 
	C667.166321,338.846313 665.490967,341.878693 664.470398,346.389038 
	C664.326050,347.929260 664.181763,349.469482 663.490051,350.607544 
	C661.300537,347.504639 659.057434,343.703430 654.675598,345.115509 
	C652.376221,345.856476 650.784851,348.794250 648.301697,351.263092 
	C648.284973,354.519562 648.268311,357.776062 647.395752,361.042908 
M764.198242,239.635849 
	C774.434326,232.223724 785.829224,229.750168 798.216553,231.836823 
	C804.589844,232.910400 809.504211,236.040817 810.918640,242.786163 
	C812.340576,249.567596 809.528931,256.419983 802.834229,259.523438 
	C797.077942,262.191833 790.647461,263.985840 784.344177,264.742584 
	C777.024963,265.621307 769.519287,264.947418 762.106018,264.947418 
	C763.157471,272.956329 763.151123,273.045258 770.760132,273.586304 
	C774.575256,273.857574 778.434814,273.990417 782.245667,273.743927 
	C792.104980,273.106354 801.850586,271.759705 810.163147,265.766785 
	C818.799316,259.540527 821.670227,250.708298 819.766113,240.662903 
	C818.030579,231.506546 811.380493,226.543365 802.565308,224.743698 
	C798.208801,223.854294 793.660095,223.545944 789.203369,223.582520 
	C779.765076,223.659988 771.147827,226.799423 762.606506,232.451797 
	C764.924805,223.354919 766.994751,215.232391 768.953369,207.546631 
	C783.977539,205.953842 798.486389,204.415665 812.906738,202.886887 
	C812.906738,199.394806 812.906738,196.787781 812.906738,194.572235 
	C798.804321,196.265579 784.921875,197.932526 770.461609,199.668839 
	C771.585693,193.640457 772.460632,188.948181 773.415833,183.825775 
	C770.140015,183.557755 767.244324,183.320847 764.333923,183.082718 
	C763.619324,188.668900 762.955139,193.860519 762.227478,199.548569 
	C754.412720,198.995193 747.199585,198.484406 739.993652,197.974136 
	C739.993652,200.869095 739.993652,203.449356 739.993652,206.442078 
	C746.857239,206.762222 753.426514,207.068649 761.189758,207.430771 
	C756.940674,220.731888 752.878845,233.446640 748.718323,246.470398 
	C750.853149,247.258270 753.414124,248.203415 755.441101,248.951477 
	C758.468750,245.668457 761.048401,242.871262 764.198242,239.635849 
M522.505371,273.064178 
	C523.361816,271.888611 524.462769,270.820648 525.035095,269.520081 
	C528.770020,261.033051 531.909363,252.243240 536.204102,244.056396 
	C539.491455,237.789978 544.805542,233.014954 552.175171,231.452225 
	C557.951111,230.227463 561.764709,232.766708 562.270996,238.621735 
	C562.800964,244.750229 562.757874,250.928772 562.949158,257.085938 
	C563.317993,268.956512 569.813538,274.588196 581.704346,273.332886 
	C594.825256,271.947693 606.933594,258.746124 609.333740,243.102631 
	C607.186707,241.421814 604.995117,239.706177 602.831726,238.012543 
	C601.002808,242.530823 600.002808,247.130875 597.497070,250.662750 
	C594.229126,255.269089 590.413330,260.138794 585.671021,262.896423 
	C578.302368,267.181213 572.125549,263.205017 571.521484,254.806747 
	C571.139771,249.498199 571.216675,244.155731 571.118469,238.827911 
	C570.863342,224.987701 561.513367,219.225586 548.869568,225.127106 
	C547.357239,225.833008 545.839111,226.526566 544.323730,227.225845 
	C544.107727,226.923050 543.891785,226.620255 543.675842,226.317459 
	C551.184021,213.122421 558.692261,199.927399 566.292847,186.570007 
	C563.085083,185.285599 560.202209,184.131256 557.187256,182.924057 
	C542.166565,211.774979 526.292664,239.917389 514.211487,270.233551 
	C517.082458,271.252228 519.404053,272.075958 522.505371,273.064178 
M929.881470,203.738495 
	C926.427185,204.063126 922.972900,204.387756 919.574585,204.707123 
	C919.574585,198.107620 919.574585,191.706451 919.574585,185.429382 
	C916.396545,185.429382 913.351196,185.429382 910.355347,185.429382 
	C910.355347,192.188812 910.355347,198.576767 910.355347,205.219772 
	C900.761841,205.219772 891.512268,205.219772 882.110229,205.219772 
	C882.110229,207.732468 882.110229,210.287979 882.110229,213.402802 
	C891.663696,213.402802 900.943054,213.402802 910.950195,213.402802 
	C910.950195,222.844971 910.950195,231.744339 910.950195,241.084839 
	C908.778870,240.932281 906.168701,240.670380 903.552612,240.580734 
	C897.306213,240.366699 891.235901,241.051712 885.906799,244.722977 
	C878.135559,250.076569 876.366638,260.773041 882.825195,266.751251 
	C890.650940,273.994965 900.377686,274.348572 910.038269,271.680786 
	C918.387390,269.375244 920.612976,262.348419 921.042175,254.534927 
	C921.053223,254.332977 921.439270,254.151611 922.125183,253.531433 
	C927.133850,257.336639 932.238892,261.215057 937.532532,265.236755 
	C939.019897,262.979553 940.463318,260.788971 942.449890,257.774078 
	C936.224792,253.729568 930.084534,249.842789 924.075500,245.762787 
	C922.603699,244.763428 920.533142,243.166412 920.486816,241.785568 
	C920.170593,232.353027 920.321167,222.904831 920.321167,213.137222 
	C925.600037,212.471680 931.778015,211.692795 937.826538,210.930237 
	C937.826538,207.771118 937.826538,205.153549 937.826538,202.380997 
	C935.295898,202.793213 933.020569,203.163834 929.881470,203.738495 
M851.130066,253.280853 
	C852.197083,259.950958 853.264038,266.621063 854.366150,273.510651 
	C857.580811,273.244080 860.001709,273.043335 862.422546,272.842590 
	C861.946716,272.564514 861.470825,272.286438 860.994934,272.008362 
	C863.660217,262.855896 866.093384,253.626190 869.100830,244.587555 
	C870.369629,240.774109 870.293701,238.343704 865.741882,236.896942 
	C863.957825,241.264786 862.180786,245.615570 860.403748,249.966339 
	C857.439575,228.195938 861.404541,207.113327 865.705811,185.748230 
	C862.350952,185.532257 859.317383,185.336960 854.832886,185.048248 
	C853.553345,207.955872 852.313171,230.159042 851.130066,253.280853 
M632.890320,267.683960 
	C633.305115,269.416046 633.719971,271.148163 634.181641,273.075897 
	C636.899170,272.934387 639.325867,272.808014 640.312500,272.756622 
	C643.548645,260.895325 646.532898,249.957306 649.573669,238.811920 
	C648.316101,237.957733 646.887512,236.987396 645.289856,235.902191 
	C643.344849,240.671646 641.551270,245.069870 639.757690,249.468094 
	C636.962402,228.123337 640.942505,207.658325 645.328064,187.069000 
	C642.100769,186.782761 639.159668,186.521912 636.117981,186.252151 
	C634.845886,194.606537 633.573364,202.643494 632.405823,210.695648 
	C629.690491,229.422546 628.987793,248.145111 632.890320,267.683960 
M420.446747,236.110626 
	C419.148895,236.110626 417.851074,236.110626 416.363190,236.110626 
	C415.854004,238.742508 415.279419,241.144608 414.936035,243.579315 
	C412.705292,259.395233 417.204590,267.079590 432.987183,270.126373 
	C443.137238,272.085815 453.818848,271.822449 464.245972,271.637665 
	C471.773163,271.504272 479.273560,269.860413 486.521973,268.924347 
	C486.521973,265.049042 486.521973,262.161713 486.521973,260.518433 
	C472.671051,261.351807 459.110657,262.485168 445.530914,262.810059 
	C440.869812,262.921570 435.955475,261.558289 431.520874,259.897003 
	C424.840759,257.394531 422.553223,252.658386 423.602173,245.616516 
	C424.033813,242.718475 424.641235,239.846603 425.189117,236.851395 
	C423.609894,236.578812 422.467865,236.381683 420.446747,236.110626 
M670.662964,265.987091 
	C685.370422,270.869476 700.067322,268.195374 714.728027,266.671448 
	C714.728027,263.134552 714.728027,260.346405 714.728027,257.300598 
	C712.383301,257.688873 710.308655,258.249664 708.213318,258.342072 
	C698.799072,258.757202 689.315491,259.859528 679.978943,259.136810 
	C670.787720,258.425354 668.748169,254.776917 669.795837,245.745361 
	C670.000549,243.980301 670.241516,242.219421 670.500793,240.181046 
	C667.915283,239.913498 665.519592,239.665604 663.216797,239.427322 
	C658.682373,252.918564 660.699585,260.516388 670.662964,265.987091 
M456.906403,193.719742 
	C445.026031,193.719742 433.145630,193.719742 421.236267,193.719742 
	C421.236267,195.807571 421.236267,198.549896 421.236267,201.744675 
	C440.776276,201.744675 460.047913,201.744675 479.136688,201.744675 
	C479.136688,197.955139 479.136688,195.251541 479.136688,192.527344 
	C471.754669,192.928177 464.800873,193.305771 456.906403,193.719742 
M722.933472,350.393921 
	C731.555298,355.897430 736.846741,363.445251 737.561890,373.899414 
	C737.732239,376.389679 738.763489,378.962189 741.757202,377.974304 
	C743.174133,377.506683 744.787354,375.029877 744.836121,373.418701 
	C745.387634,355.199341 728.115295,338.117584 710.178894,339.145660 
	C708.508545,339.241394 706.944397,341.190491 705.330872,342.279022 
	C706.725159,343.583160 707.904297,345.435944 709.556030,346.083313 
	C713.678101,347.699005 718.014954,348.766937 722.933472,350.393921 
M705.073669,196.035751 
	C692.349915,196.035751 679.626160,196.035751 666.811890,196.035751 
	C666.811890,198.812485 666.811890,201.536682 666.811890,204.670807 
	C681.819336,204.670807 696.460388,204.670807 711.204834,204.670807 
	C711.204834,201.277863 711.204834,198.556946 711.204834,195.683182 
	C709.234619,195.802826 707.590149,195.902695 705.073669,196.035751 
M731.091858,332.201843 
	C728.095154,332.220917 723.902161,330.700562 723.455994,335.275574 
	C723.047729,339.460876 727.308167,339.068054 730.070740,339.615326 
	C738.646423,341.314117 742.710510,345.501587 744.504272,355.060944 
	C745.022705,357.824158 745.618469,361.018463 748.933411,360.509125 
	C752.687866,359.932220 752.032043,356.416992 751.563232,353.606812 
	C749.665588,342.231750 743.049683,335.184631 731.091858,332.201843 
M637.008484,450.644440 
	C632.588928,447.152557 630.254822,442.698914 629.783020,436.982819 
	C629.660767,435.501862 627.346924,434.201843 626.039673,432.818726 
	C625.006470,434.389343 623.119202,435.936615 623.075623,437.534210 
	C622.735901,449.979980 634.201172,461.363617 646.635986,460.916351 
	C648.196472,460.860199 649.687622,458.874359 651.210876,457.782593 
	C649.813049,456.512268 648.613647,454.790649 646.974243,454.069946 
	C643.991577,452.758850 640.747559,452.042175 637.008484,450.644440 
z"/>
<path fill="#FEFEFE" opacity="1.000000" stroke="none" 
	d="
M586.345947,595.436523 
	C586.207581,596.018188 585.854675,596.342224 585.501831,596.666260 
	C585.407898,596.131714 585.314026,595.597107 585.445923,594.876709 
	C585.824951,594.853577 585.978149,595.016296 586.345947,595.436523 
z"/>
<path fill="#FFDC5E" opacity="1.000000" stroke="none" 
	d="
M648.873779,350.739990 
	C650.784851,348.794250 652.376221,345.856476 654.675598,345.115509 
	C659.057434,343.703430 661.300537,347.504639 664.046875,350.992920 
	C672.297607,362.942596 679.941956,374.540649 687.759338,386.020874 
	C688.573975,387.217224 690.414185,387.715210 691.778564,388.537201 
	C691.504150,387.000519 691.680786,385.162170 690.885864,383.973541 
	C682.333435,371.185516 673.627808,358.499969 664.964111,345.786377 
	C665.490967,341.878693 667.166321,338.846313 671.312866,337.910004 
	C675.209595,337.030090 677.597168,339.355591 679.552612,342.199829 
	C690.067261,357.493927 700.537109,372.818878 710.734009,388.556396 
	C694.899231,399.124695 690.328308,423.019592 701.305603,437.325592 
	C702.210388,438.504669 703.969543,439.028137 705.331726,439.856232 
	C705.649902,439.513855 705.968018,439.171478 706.286133,438.829102 
	C705.384094,436.945740 704.493042,435.056976 703.578247,433.179871 
	C697.753479,421.227875 698.610291,409.719971 706.148010,398.827484 
	C708.112305,395.989014 710.719604,393.595520 713.031494,390.997620 
	C715.425293,389.999237 715.918396,388.474854 715.314331,385.848022 
	C713.791443,379.225922 712.680603,372.508087 711.453735,365.819611 
	C711.155334,364.192963 710.980469,362.536224 710.863464,360.885193 
	C710.601196,357.184204 712.361633,354.717865 715.919312,353.987823 
	C719.487732,353.255554 722.640564,354.197449 724.066040,357.981384 
	C725.586487,362.017700 726.792419,366.172852 728.326050,370.203705 
	C732.044556,379.976898 735.720276,389.770844 739.686218,399.444489 
	C752.450073,430.577637 730.091797,462.050964 696.483765,459.927155 
	C686.163940,459.274994 677.474182,454.459869 669.353394,447.925964 
	C668.992981,447.998871 669.034546,447.995819 669.034546,447.995819 
	C667.568909,445.684814 666.175354,443.324280 664.626038,441.070831 
	C654.283569,426.027252 643.884521,411.022461 633.564026,395.963837 
	C631.670715,393.201233 629.864319,390.260162 632.069946,386.786133 
	C634.066711,383.641022 636.980957,382.483704 641.304077,383.231842 
	C648.963196,393.213013 655.939514,402.990326 662.915894,412.767670 
	C663.439270,412.616943 663.962708,412.466217 664.486145,412.315491 
	C664.073914,410.705078 664.054626,408.834595 663.187805,407.525116 
	C655.787415,396.345764 648.201904,385.289185 640.757568,374.138580 
	C639.593506,372.394928 638.862732,370.361969 637.931641,368.462799 
	C638.694885,362.805756 641.073242,360.941132 648.105469,361.191284 
	C649.809937,362.452271 650.944031,363.469788 651.777344,364.692383 
	C658.888306,375.125153 665.904114,385.623047 673.067627,396.019257 
	C673.977661,397.339966 675.575134,398.187042 676.854126,399.253510 
	C677.300049,398.815552 677.746033,398.377563 678.192017,397.939575 
	C677.348145,396.450714 676.605103,394.893097 675.644531,393.483734 
	C667.593933,381.671997 659.421631,369.941895 651.501709,358.043610 
	C650.109741,355.952515 649.724121,353.191589 648.873779,350.739990 
z"/>
<path fill="#080808" opacity="1.000000" stroke="none" 
	d="
M763.913086,239.854950 
	C761.048401,242.871262 758.468750,245.668457 755.441101,248.951477 
	C753.414124,248.203415 750.853149,247.258270 748.718323,246.470398 
	C752.878845,233.446640 756.940674,220.731888 761.189758,207.430771 
	C753.426514,207.068649 746.857239,206.762222 739.993652,206.442078 
	C739.993652,203.449356 739.993652,200.869095 739.993652,197.974136 
	C747.199585,198.484406 754.412720,198.995193 762.227478,199.548569 
	C762.955139,193.860519 763.619324,188.668900 764.333923,183.082718 
	C767.244324,183.320847 770.140015,183.557755 773.415833,183.825775 
	C772.460632,188.948181 771.585693,193.640457 770.461609,199.668839 
	C784.921875,197.932526 798.804321,196.265579 812.906738,194.572235 
	C812.906738,196.787781 812.906738,199.394806 812.906738,202.886887 
	C798.486389,204.415665 783.977539,205.953842 768.953369,207.546631 
	C766.994751,215.232391 764.924805,223.354919 762.606506,232.451797 
	C771.147827,226.799423 779.765076,223.659988 789.203369,223.582520 
	C793.660095,223.545944 798.208801,223.854294 802.565308,224.743698 
	C811.380493,226.543365 818.030579,231.506546 819.766113,240.662903 
	C821.670227,250.708298 818.799316,259.540527 810.163147,265.766785 
	C801.850586,271.759705 792.104980,273.106354 782.245667,273.743927 
	C778.434814,273.990417 774.575256,273.857574 770.760132,273.586304 
	C763.151123,273.045258 763.157471,272.956329 762.106018,264.947418 
	C769.519287,264.947418 777.024963,265.621307 784.344177,264.742584 
	C790.647461,263.985840 797.077942,262.191833 802.834229,259.523438 
	C809.528931,256.419983 812.340576,249.567596 810.918640,242.786163 
	C809.504211,236.040817 804.589844,232.910400 798.216553,231.836823 
	C785.829224,229.750168 774.434326,232.223724 763.913086,239.854950 
z"/>
<path fill="#070707" opacity="1.000000" stroke="none" 
	d="
M522.115479,272.981934 
	C519.404053,272.075958 517.082458,271.252228 514.211487,270.233551 
	C526.292664,239.917389 542.166565,211.774979 557.187256,182.924057 
	C560.202209,184.131256 563.085083,185.285599 566.292847,186.570007 
	C558.692261,199.927399 551.184021,213.122421 543.675842,226.317459 
	C543.891785,226.620255 544.107727,226.923050 544.323730,227.225845 
	C545.839111,226.526566 547.357239,225.833008 548.869568,225.127106 
	C561.513367,219.225586 570.863342,224.987701 571.118469,238.827911 
	C571.216675,244.155731 571.139771,249.498199 571.521484,254.806747 
	C572.125549,263.205017 578.302368,267.181213 585.671021,262.896423 
	C590.413330,260.138794 594.229126,255.269089 597.497070,250.662750 
	C600.002808,247.130875 601.002808,242.530823 602.831726,238.012543 
	C604.995117,239.706177 607.186707,241.421814 609.333740,243.102631 
	C606.933594,258.746124 594.825256,271.947693 581.704346,273.332886 
	C569.813538,274.588196 563.317993,268.956512 562.949158,257.085938 
	C562.757874,250.928772 562.800964,244.750229 562.270996,238.621735 
	C561.764709,232.766708 557.951111,230.227463 552.175171,231.452225 
	C544.805542,233.014954 539.491455,237.789978 536.204102,244.056396 
	C531.909363,252.243240 528.770020,261.033051 525.035095,269.520081 
	C524.462769,270.820648 523.361816,271.888611 522.115479,272.981934 
z"/>
<path fill="#080808" opacity="1.000000" stroke="none" 
	d="
M930.313354,203.636475 
	C933.020569,203.163834 935.295898,202.793213 937.826538,202.380997 
	C937.826538,205.153549 937.826538,207.771118 937.826538,210.930237 
	C931.778015,211.692795 925.600037,212.471680 920.321167,213.137222 
	C920.321167,222.904831 920.170593,232.353027 920.486816,241.785568 
	C920.533142,243.166412 922.603699,244.763428 924.075500,245.762787 
	C930.084534,249.842789 936.224792,253.729568 942.449890,257.774078 
	C940.463318,260.788971 939.019897,262.979553 937.532532,265.236755 
	C932.238892,261.215057 927.133850,257.336639 922.125183,253.531433 
	C921.439270,254.151611 921.053223,254.332977 921.042175,254.534927 
	C920.612976,262.348419 918.387390,269.375244 910.038269,271.680786 
	C900.377686,274.348572 890.650940,273.994965 882.825195,266.751251 
	C876.366638,260.773041 878.135559,250.076569 885.906799,244.722977 
	C891.235901,241.051712 897.306213,240.366699 903.552612,240.580734 
	C906.168701,240.670380 908.778870,240.932281 910.950195,241.084839 
	C910.950195,231.744339 910.950195,222.844971 910.950195,213.402802 
	C900.943054,213.402802 891.663696,213.402802 882.110229,213.402802 
	C882.110229,210.287979 882.110229,207.732468 882.110229,205.219772 
	C891.512268,205.219772 900.761841,205.219772 910.355347,205.219772 
	C910.355347,198.576767 910.355347,192.188812 910.355347,185.429382 
	C913.351196,185.429382 916.396545,185.429382 919.574585,185.429382 
	C919.574585,191.706451 919.574585,198.107620 919.574585,204.707123 
	C922.972900,204.387756 926.427185,204.063126 930.313354,203.636475 
M889.582031,251.057434 
	C886.020691,256.003876 886.426697,260.302429 891.148743,262.711304 
	C896.577698,265.480682 902.458740,266.101044 907.865784,262.898285 
	C913.036804,259.835358 912.142456,254.481369 911.934448,249.280762 
	C904.402344,247.559402 897.147095,246.085739 889.582031,251.057434 
z"/>
<path fill="#080808" opacity="1.000000" stroke="none" 
	d="
M851.101562,252.821533 
	C852.313171,230.159042 853.553345,207.955872 854.832886,185.048248 
	C859.317383,185.336960 862.350952,185.532257 865.705811,185.748230 
	C861.404541,207.113327 857.439575,228.195938 860.403748,249.966339 
	C862.180786,245.615570 863.957825,241.264786 865.741882,236.896942 
	C870.293701,238.343704 870.369629,240.774109 869.100830,244.587555 
	C866.093384,253.626190 863.660217,262.855896 860.994934,272.008362 
	C861.470825,272.286438 861.946716,272.564514 862.422546,272.842590 
	C860.001709,273.043335 857.580811,273.244080 854.366150,273.510651 
	C853.264038,266.621063 852.197083,259.950958 851.101562,252.821533 
z"/>
<path fill="#090909" opacity="1.000000" stroke="none" 
	d="
M632.810059,267.261078 
	C628.987793,248.145111 629.690491,229.422546 632.405823,210.695648 
	C633.573364,202.643494 634.845886,194.606537 636.117981,186.252151 
	C639.159668,186.521912 642.100769,186.782761 645.328064,187.069000 
	C640.942505,207.658325 636.962402,228.123337 639.757690,249.468094 
	C641.551270,245.069870 643.344849,240.671646 645.289856,235.902191 
	C646.887512,236.987396 648.316101,237.957733 649.573669,238.811920 
	C646.532898,249.957306 643.548645,260.895325 640.312500,272.756622 
	C639.325867,272.808014 636.899170,272.934387 634.181641,273.075897 
	C633.719971,271.148163 633.305115,269.416046 632.810059,267.261078 
z"/>
<path fill="#070707" opacity="1.000000" stroke="none" 
	d="
M420.886292,236.147583 
	C422.467865,236.381683 423.609894,236.578812 425.189117,236.851395 
	C424.641235,239.846603 424.033813,242.718475 423.602173,245.616516 
	C422.553223,252.658386 424.840759,257.394531 431.520874,259.897003 
	C435.955475,261.558289 440.869812,262.921570 445.530914,262.810059 
	C459.110657,262.485168 472.671051,261.351807 486.521973,260.518433 
	C486.521973,262.161713 486.521973,265.049042 486.521973,268.924347 
	C479.273560,269.860413 471.773163,271.504272 464.245972,271.637665 
	C453.818848,271.822449 443.137238,272.085815 432.987183,270.126373 
	C417.204590,267.079590 412.705292,259.395233 414.936035,243.579315 
	C415.279419,241.144608 415.854004,238.742508 416.363190,236.110626 
	C417.851074,236.110626 419.148895,236.110626 420.886292,236.147583 
z"/>
<path fill="#090909" opacity="1.000000" stroke="none" 
	d="
M670.310547,265.841278 
	C660.699585,260.516388 658.682373,252.918564 663.216797,239.427322 
	C665.519592,239.665604 667.915283,239.913498 670.500793,240.181046 
	C670.241516,242.219421 670.000549,243.980301 669.795837,245.745361 
	C668.748169,254.776917 670.787720,258.425354 679.978943,259.136810 
	C689.315491,259.859528 698.799072,258.757202 708.213318,258.342072 
	C710.308655,258.249664 712.383301,257.688873 714.728027,257.300598 
	C714.728027,260.346405 714.728027,263.134552 714.728027,266.671448 
	C700.067322,268.195374 685.370422,270.869476 670.310547,265.841278 
z"/>
<path fill="#0A0A0A" opacity="1.000000" stroke="none" 
	d="
M457.376740,193.701553 
	C464.800873,193.305771 471.754669,192.928177 479.136688,192.527344 
	C479.136688,195.251541 479.136688,197.955139 479.136688,201.744675 
	C460.047913,201.744675 440.776276,201.744675 421.236267,201.744675 
	C421.236267,198.549896 421.236267,195.807571 421.236267,193.719742 
	C433.145630,193.719742 445.026031,193.719742 457.376740,193.701553 
z"/>
<path fill="#62B0ED" opacity="1.000000" stroke="none" 
	d="
M668.999023,447.978638 
	C669.905762,452.626556 667.955322,454.148132 663.296509,454.009064 
	C644.038086,453.434143 628.866333,437.682495 630.093445,418.968567 
	C630.187805,417.529602 632.116943,416.210938 633.193298,414.836365 
	C634.453796,416.043884 636.587158,417.091370 636.842346,418.483246 
	C640.045654,435.955261 648.818665,444.560211 666.410889,447.100037 
	C667.047485,447.191925 667.644592,447.556824 668.647339,447.895142 
	C669.034546,447.995819 668.992981,447.998871 668.999023,447.978638 
z"/>
<path fill="#62B0ED" opacity="1.000000" stroke="none" 
	d="
M722.599487,350.224304 
	C718.014954,348.766937 713.678101,347.699005 709.556030,346.083313 
	C707.904297,345.435944 706.725159,343.583160 705.330872,342.279053 
	C706.944397,341.190491 708.508545,339.241394 710.178894,339.145660 
	C728.115295,338.117584 745.387634,355.199341 744.836121,373.418701 
	C744.787354,375.029877 743.174133,377.506683 741.757202,377.974304 
	C738.763489,378.962189 737.732239,376.389679 737.561890,373.899414 
	C736.846741,363.445251 731.555298,355.897430 722.599487,350.224304 
z"/>
<path fill="#070707" opacity="1.000000" stroke="none" 
	d="
M705.509644,196.019150 
	C707.590149,195.902695 709.234619,195.802826 711.204834,195.683182 
	C711.204834,198.556946 711.204834,201.277863 711.204834,204.670807 
	C696.460388,204.670807 681.819336,204.670807 666.811890,204.670807 
	C666.811890,201.536682 666.811890,198.812485 666.811890,196.035751 
	C679.626160,196.035751 692.349915,196.035751 705.509644,196.019150 
z"/>
<path fill="#62B0ED" opacity="1.000000" stroke="none" 
	d="
M731.498901,332.270386 
	C743.049683,335.184631 749.665588,342.231750 751.563232,353.606812 
	C752.032043,356.416992 752.687866,359.932220 748.933411,360.509125 
	C745.618469,361.018463 745.022705,357.824158 744.504272,355.060944 
	C742.710510,345.501587 738.646423,341.314117 730.070740,339.615326 
	C727.308167,339.068054 723.047729,339.460876 723.455994,335.275574 
	C723.902161,330.700562 728.095154,332.220917 731.498901,332.270386 
z"/>
<path fill="#62B0ED" opacity="1.000000" stroke="none" 
	d="
M637.310547,450.860931 
	C640.747559,452.042175 643.991577,452.758850 646.974243,454.069946 
	C648.613647,454.790649 649.813049,456.512268 651.210876,457.782593 
	C649.687622,458.874359 648.196472,460.860199 646.635986,460.916351 
	C634.201172,461.363617 622.735901,449.979980 623.075623,437.534210 
	C623.119202,435.936615 625.006470,434.389343 626.039673,432.818726 
	C627.346924,434.201843 629.660767,435.501862 629.783020,436.982819 
	C630.254822,442.698914 632.588928,447.152557 637.310547,450.860931 
z"/>
<path fill="#F09B47" opacity="1.000000" stroke="none" 
	d="
M712.878357,390.750092 
	C710.719604,393.595520 708.112305,395.989014 706.148010,398.827484 
	C698.610291,409.719971 697.753479,421.227875 703.578247,433.179871 
	C704.493042,435.056976 705.384094,436.945740 706.286133,438.829102 
	C705.968018,439.171478 705.649902,439.513855 705.331726,439.856232 
	C703.969543,439.028137 702.210388,438.504669 701.305603,437.325592 
	C690.328308,423.019592 694.899231,399.124695 710.794556,388.897034 
	C711.670715,389.377106 712.197998,389.939819 712.878357,390.750092 
z"/>
<path fill="#F09B47" opacity="1.000000" stroke="none" 
	d="
M648.587769,351.001526 
	C649.724121,353.191589 650.109741,355.952515 651.501709,358.043610 
	C659.421631,369.941895 667.593933,381.671997 675.644531,393.483734 
	C676.605103,394.893097 677.348145,396.450714 678.192017,397.939575 
	C677.746033,398.377563 677.300049,398.815552 676.854126,399.253510 
	C675.575134,398.187042 673.977661,397.339966 673.067627,396.019257 
	C665.904114,385.623047 658.888306,375.125153 651.777344,364.692383 
	C650.944031,363.469788 649.809937,362.452271 648.533447,361.186096 
	C648.268311,357.776062 648.284973,354.519562 648.587769,351.001526 
z"/>
<path fill="#F09B47" opacity="1.000000" stroke="none" 
	d="
M664.717285,346.087708 
	C673.627808,358.499969 682.333435,371.185516 690.885864,383.973541 
	C691.680786,385.162170 691.504150,387.000519 691.778564,388.537201 
	C690.414185,387.715210 688.573975,387.217224 687.759338,386.020874 
	C679.941956,374.540649 672.297607,362.942596 664.320557,351.194000 
	C664.181763,349.469482 664.326050,347.929260 664.717285,346.087708 
z"/>
<path fill="#F09B47" opacity="1.000000" stroke="none" 
	d="
M637.618896,368.774017 
	C638.862732,370.361969 639.593506,372.394928 640.757568,374.138580 
	C648.201904,385.289185 655.787415,396.345764 663.187805,407.525116 
	C664.054626,408.834595 664.073914,410.705078 664.486145,412.315491 
	C663.962708,412.466217 663.439270,412.616943 662.915894,412.767670 
	C655.939514,402.990326 648.963196,393.213013 641.737793,383.287720 
	C639.495850,378.633087 634.854370,374.914581 637.618896,368.774017 
z"/>
<path fill="#F9F9F9" opacity="1.000000" stroke="none" 
	d="
M889.883789,250.813812 
	C897.147095,246.085739 904.402344,247.559402 911.934448,249.280762 
	C912.142456,254.481369 913.036804,259.835358 907.865784,262.898285 
	C902.458740,266.101044 896.577698,265.480682 891.148743,262.711304 
	C886.426697,260.302429 886.020691,256.003876 889.883789,250.813812 
z"/>
</svg>