<svg version="1.1" id="Layer_1" xmlns="http://www.w3.org/2000/svg" xmlns:xlink="http://www.w3.org/1999/xlink" x="0px" y="0px"
	 width="100%" viewBox="0 0 1080 1080" enable-background="new 0 0 1080 1080" xml:space="preserve">
<path fill="none" opacity="1.000000" stroke="none" 
	d="
M604.000000,1081.000000 
	C402.689850,1081.000000 201.879684,1081.000000 1.034763,1081.000000 
	C1.034763,721.064697 1.034763,361.129425 1.034763,1.097076 
	C360.893738,1.097076 720.787476,1.097076 1080.840576,1.097076 
	C1080.840576,360.999939 1080.840576,720.999939 1080.840576,1081.000000 
	C922.128967,1081.000000 763.314514,1081.000000 604.000000,1081.000000 
M295.812531,502.229065 
	C294.369354,502.635284 292.933685,503.070923 291.481873,503.443451 
	C244.698166,515.447876 204.613708,539.055298 172.512650,574.998657 
	C122.865967,630.587830 102.696106,695.985962 112.004219,769.930725 
	C118.213287,819.256348 138.499146,862.654541 172.104462,899.250305 
	C218.017776,949.249084 275.143372,975.906311 343.198853,978.453613 
	C389.515076,980.187256 432.826447,969.314880 472.723450,945.921936 
	C518.544189,919.055725 551.999084,880.955261 573.155762,832.154602 
	C589.275940,794.971436 594.976440,755.989197 591.565308,715.865417 
	C587.937500,673.193176 573.653687,634.034668 548.841919,598.996399 
	C512.958679,548.323425 464.558075,515.975098 404.165070,501.865479 
	C368.388184,493.506927 332.457245,494.107300 295.812531,502.229065 
M476.298615,487.152191 
	C492.482971,492.743530 509.186188,495.712372 526.256348,495.928467 
	C553.248108,496.270081 580.246155,496.119659 607.241516,496.176636 
	C608.989380,496.180298 610.737183,496.177094 612.853027,496.177094 
	C612.465271,497.562317 612.298767,498.356415 612.023560,499.110809 
	C605.869446,515.979187 599.697876,532.841125 593.541138,549.708496 
	C586.300903,569.544189 579.010010,589.362122 571.950806,609.262085 
	C571.369934,610.899780 572.394287,613.106873 572.672791,615.049377 
	C574.595520,614.671997 576.590881,614.495667 578.412231,613.837524 
	C579.415039,613.475159 580.123779,612.301575 580.967346,611.496094 
	C620.133606,574.099731 659.318665,536.722961 698.422607,499.261597 
	C700.889954,496.897858 703.343323,495.893982 706.779358,495.938141 
	C721.108276,496.122192 735.441711,496.117218 749.771912,495.993225 
	C775.088196,495.774200 800.481262,496.567444 825.701416,494.859161 
	C867.384949,492.035797 903.506836,475.098450 933.830872,446.527832 
	C969.453979,412.964386 988.822571,371.532196 991.547791,322.513641 
	C993.392090,289.340057 988.860291,257.216400 973.407593,227.505005 
	C938.454712,160.299759 882.760681,125.143684 807.029785,124.351807 
	C718.052368,123.421432 629.057739,124.073059 540.070862,124.215195 
	C529.776123,124.231636 519.384766,124.676910 509.206024,126.112999 
	C458.035675,133.332489 416.842651,157.842499 385.970032,199.216171 
	C355.226074,240.417358 345.377045,287.548523 352.637390,337.361206 
	C363.402832,411.222015 405.608551,460.880249 476.298615,487.152191 
z"/>
<path fill="#F2F3F4" opacity="1.000000" stroke="none" 
	d="
M296.216370,502.126770 
	C332.457245,494.107300 368.388184,493.506927 404.165070,501.865479 
	C464.558075,515.975098 512.958679,548.323425 548.841919,598.996399 
	C573.653687,634.034668 587.937500,673.193176 591.565308,715.865417 
	C594.976440,755.989197 589.275940,794.971436 573.155762,832.154602 
	C551.999084,880.955261 518.544189,919.055725 472.723450,945.921936 
	C432.826447,969.314880 389.515076,980.187256 343.198853,978.453613 
	C275.143372,975.906311 218.017776,949.249084 172.104462,899.250305 
	C138.499146,862.654541 118.213287,819.256348 112.004219,769.930725 
	C102.696106,695.985962 122.865967,630.587830 172.512650,574.998657 
	C204.613708,539.055298 244.698166,515.447876 291.481873,503.443451 
	C292.933685,503.070923 294.369354,502.635284 296.216370,502.126770 
M442.979645,730.009155 
	C442.783112,726.372070 443.005432,722.654785 442.326996,719.109924 
	C432.742035,669.030334 384.831665,636.628723 334.459656,646.046814 
	C296.763153,653.094910 265.395111,686.046753 260.933258,723.844849 
	C254.975571,760.855103 274.804504,803.646240 311.504578,821.151062 
	C364.865875,846.602783 431.580658,817.333801 442.721222,753.016907 
	C443.961792,745.855042 442.872345,738.289612 442.979645,730.009155 
M203.173431,630.691833 
	C211.814178,620.680725 220.454926,610.669617 229.226517,600.506897 
	C224.817841,596.719849 220.809601,593.276733 216.625702,589.682800 
	C198.841202,610.266113 181.303040,630.564392 163.572815,651.084961 
	C168.105621,654.929016 172.084351,658.303223 176.235107,661.823303 
	C185.333908,651.324829 194.033478,641.287048 203.173431,630.691833 
M257.326538,849.813965 
	C259.400665,847.971680 261.474762,846.129395 263.776154,844.085205 
	C246.183395,823.455383 228.832489,803.109131 211.214630,782.449890 
	C206.880524,786.164978 202.791061,789.670349 198.584808,793.275818 
	C216.346390,814.105835 233.713943,834.473694 251.173615,854.949585 
	C253.241562,853.228271 255.018631,851.749084 257.326538,849.813965 
M504.039001,671.462891 
	C505.537933,673.205261 507.036865,674.947632 508.831696,677.033997 
	C513.076416,673.406006 517.074097,669.989136 521.436035,666.260864 
	C503.817230,645.601379 486.398438,625.176392 468.830109,604.576050 
	C464.464325,608.281921 460.446747,611.692200 456.163666,615.327820 
	C472.139465,634.085938 487.842834,652.524109 504.039001,671.462891 
M220.636353,881.085266 
	C223.143616,878.922729 225.650864,876.760193 228.514542,874.290283 
	C210.935364,853.671936 193.514969,833.239868 175.909103,812.590271 
	C171.594330,816.292053 167.605011,819.714600 163.281036,823.424316 
	C180.923035,844.109680 198.323196,864.511414 215.848923,885.060425 
	C217.564468,883.626770 218.826035,882.572449 220.636353,881.085266 
M217.787796,659.276001 
	C211.512177,666.576904 205.236542,673.877747 198.746414,681.428223 
	C203.042725,685.122498 207.116882,688.625732 211.334717,692.252563 
	C229.234192,671.541748 246.719910,651.309692 264.357239,630.902161 
	C260.023102,627.171204 256.028076,623.732117 251.778732,620.074158 
	C240.434967,633.149048 229.338318,645.939148 217.787796,659.276001 
M243.642990,612.971008 
	C240.516769,610.299072 237.390564,607.627197 233.995361,604.725342 
	C216.262207,625.236206 198.806870,645.425659 180.999741,666.022034 
	C185.244904,669.709717 189.293884,673.226990 193.555084,676.928589 
	C210.896545,656.877319 227.806931,637.252258 244.840164,617.734497 
	C246.665176,615.643250 245.834061,614.660645 243.642990,612.971008 
M516.186035,650.335205 
	C519.517639,654.229858 522.849304,658.124512 526.310425,662.170593 
	C530.617798,658.460938 534.617432,655.016418 538.893250,651.333984 
	C531.366211,642.511902 524.055725,633.943726 516.546448,625.142456 
	C512.293579,628.986877 508.311890,632.586060 504.178406,636.322510 
	C508.396271,641.214905 512.081604,645.489502 516.186035,650.335205 
M220.773254,854.745667 
	C225.062439,859.714661 229.351639,864.683655 233.804184,869.841919 
	C238.168427,866.097534 242.138077,862.691711 246.366745,859.063721 
	C238.856033,850.267639 231.710175,841.898865 224.393478,833.330017 
	C220.064224,837.241211 216.156036,840.772034 212.115143,844.422729 
	C214.991074,847.860291 217.647507,851.035522 220.773254,854.745667 
M482.837830,657.155823 
	C478.358856,660.377502 473.879852,663.599182 469.272278,666.913391 
	C476.941742,675.876587 483.906769,684.016541 490.999420,692.305664 
	C495.438660,688.469727 499.400024,685.046692 503.575928,681.438354 
	C496.593109,673.276123 489.914612,665.469604 482.837830,657.155823 
M455.121704,650.407837 
	C456.565216,651.990601 458.008728,653.573303 459.673248,655.398376 
	C463.904266,651.732483 467.975494,648.205078 472.152405,644.586060 
	C464.869049,636.070435 457.982086,628.018250 450.934326,619.778076 
	C446.541962,623.545288 442.544922,626.973389 438.363342,630.559814 
	C443.948914,637.170105 449.309662,643.514343 455.121704,650.407837 
M208.199219,814.274841 
	C203.472183,808.757019 198.745132,803.239136 193.710602,797.362366 
	C189.381317,801.110107 185.323914,804.622498 181.146744,808.238586 
	C188.352493,816.672729 195.225357,824.717285 202.308914,833.008362 
	C206.606796,829.230530 210.626648,825.697021 214.749313,822.073120 
	C212.485641,819.361328 210.581314,817.080017 208.199219,814.274841 
M484.567352,591.083862 
	C481.042145,594.098145 477.516937,597.112366 473.640381,600.427063 
	C480.734955,608.741272 487.657379,616.853638 494.766510,625.184875 
	C499.139465,621.349854 503.077057,617.896667 507.264587,614.224243 
	C500.377594,606.155884 493.821625,598.442627 487.184448,590.799927 
	C486.864960,590.432007 485.829132,590.686218 484.567352,591.083862 
M460.319092,853.833069 
	C459.471069,854.966980 458.623047,856.100830 457.696320,857.339966 
	C461.997925,860.859924 465.932190,864.079346 470.113159,867.500610 
	C477.289398,858.932007 484.153870,850.735718 491.182190,842.343750 
	C486.796265,838.742126 482.843262,835.496033 478.613770,832.022888 
	C472.506775,839.309326 466.648193,846.299438 460.319092,853.833069 
M450.500702,851.305969 
	C451.470428,851.436279 452.981812,852.032532 453.329865,851.627991 
	C460.099701,843.758972 466.733826,835.773193 473.600220,827.567017 
	C469.193939,823.966125 465.175537,820.682190 460.997986,817.268127 
	C453.742645,825.934021 446.955353,834.040894 439.941162,842.418762 
	C443.392761,845.323853 446.658539,848.072571 450.500702,851.305969 
M491.781677,851.225342 
	C486.190094,857.933105 480.598511,864.640930 474.810699,871.584106 
	C479.169006,875.144958 483.189514,878.429810 487.402435,881.871887 
	C494.653076,873.208191 501.517090,865.006470 508.525909,856.631653 
	C504.186401,853.066895 500.257904,849.839722 496.110657,846.432861 
	C494.660797,848.041077 493.465637,849.366760 491.781677,851.225342 
M534.530518,818.005005 
	C531.648010,815.639771 528.765442,813.274536 525.744812,810.795898 
	C518.772522,819.121277 512.199890,826.969482 505.392731,835.097656 
	C509.603912,838.700745 513.547424,842.074829 517.752319,845.672607 
	C524.735352,837.348206 531.403442,829.399292 538.235291,821.255066 
	C537.018372,820.183472 536.043152,819.324829 534.530518,818.005005 
M499.336365,829.967529 
	C500.051056,830.007812 501.143219,830.370728 501.424988,830.041016 
	C507.986542,822.363159 514.460327,814.610352 521.068665,806.730225 
	C516.704651,803.143127 512.745300,799.888672 508.509399,796.406860 
	C501.716675,804.512573 495.129913,812.372498 488.370209,820.438721 
	C492.070374,823.641296 495.455475,826.571106 499.336365,829.967529 
M489.334808,808.871582 
	C493.969971,803.320557 498.605103,797.769592 503.369751,792.063477 
	C499.045624,788.483765 495.134247,785.245789 490.870575,781.716125 
	C484.223633,789.638916 477.794250,797.302368 471.191986,805.171936 
	C475.525330,808.882874 479.385956,812.188965 483.501343,815.713257 
	C485.459045,813.416077 487.163422,811.416138 489.334808,808.871582 
z"/>
<path fill="#080303" opacity="1.000000" stroke="none" 
	d="
M475.913574,487.059326 
	C405.608551,460.880249 363.402832,411.222015 352.637390,337.361206 
	C345.377045,287.548523 355.226074,240.417358 385.970032,199.216171 
	C416.842651,157.842499 458.035675,133.332489 509.206024,126.112999 
	C519.384766,124.676910 529.776123,124.231636 540.070862,124.215195 
	C629.057739,124.073059 718.052368,123.421432 807.029785,124.351807 
	C882.760681,125.143684 938.454712,160.299759 973.407593,227.505005 
	C988.860291,257.216400 993.392090,289.340057 991.547791,322.513641 
	C988.822571,371.532196 969.453979,412.964386 933.830872,446.527832 
	C903.506836,475.098450 867.384949,492.035797 825.701416,494.859161 
	C800.481262,496.567444 775.088196,495.774200 749.771912,495.993225 
	C735.441711,496.117218 721.108276,496.122192 706.779358,495.938141 
	C703.343323,495.893982 700.889954,496.897858 698.422607,499.261597 
	C659.318665,536.722961 620.133606,574.099731 580.967346,611.496094 
	C580.123779,612.301575 579.415039,613.475159 578.412231,613.837524 
	C576.590881,614.495667 574.595520,614.671997 572.672791,615.049377 
	C572.394287,613.106873 571.369934,610.899780 571.950806,609.262085 
	C579.010010,589.362122 586.300903,569.544189 593.541138,549.708496 
	C599.697876,532.841125 605.869446,515.979187 612.023560,499.110809 
	C612.298767,498.356415 612.465271,497.562317 612.853027,496.177094 
	C610.737183,496.177094 608.989380,496.180298 607.241516,496.176636 
	C580.246155,496.119659 553.248108,496.270081 526.256348,495.928467 
	C509.186188,495.712372 492.482971,492.743530 475.913574,487.059326 
M587.094360,595.317139 
	C623.282776,560.839355 659.493286,526.384583 695.608521,491.830292 
	C697.946716,489.593170 700.208313,488.602264 703.447205,488.612244 
	C737.108093,488.716095 770.770020,488.793915 804.430115,488.599701 
	C813.731689,488.546051 823.095764,488.093262 832.314819,486.914093 
	C869.048157,482.215698 901.468201,467.402679 928.085388,441.821899 
	C980.062744,391.868256 995.448792,330.377136 977.915222,261.767334 
	C957.856201,183.275238 886.889404,131.762619 808.949219,131.954422 
	C717.464722,132.179565 625.979126,131.954193 534.494263,132.091507 
	C525.706604,132.104706 516.838745,132.748886 508.147675,134.039886 
	C459.846680,141.214645 421.061707,164.807526 392.181793,203.895767 
	C360.115601,247.296539 351.539093,296.658447 362.426331,348.450958 
	C376.461548,415.218994 417.649811,459.252228 482.363098,481.033234 
	C500.053955,486.987518 518.461426,488.520691 536.979309,488.634583 
	C563.473999,488.797485 589.970398,488.664551 616.466064,488.686279 
	C622.400879,488.691132 623.560547,490.388428 621.538086,496.034760 
	C619.245667,502.435028 616.881042,508.809479 614.553833,515.197327 
	C604.905701,541.680420 595.259827,568.164429 585.189087,595.064148 
	C585.139587,595.619629 585.090088,596.175171 585.040649,596.730652 
	C585.307556,596.937134 585.574402,597.143616 585.841309,597.350037 
	C586.080322,596.808777 586.319275,596.267456 587.094360,595.317139 
z"/>
<path fill="#3E5897" opacity="1.000000" stroke="none" 
	d="
M442.863464,730.911316 
	C442.872345,738.289612 443.961792,745.855042 442.721222,753.016907 
	C431.580658,817.333801 364.865875,846.602783 311.504578,821.151062 
	C274.804504,803.646240 254.975571,760.855103 261.259460,723.760315 
	C262.094238,726.960022 262.501038,730.263855 263.129486,733.525024 
	C265.466858,745.654541 269.069366,757.210449 279.704132,764.888550 
	C306.267120,784.066528 342.698792,770.659180 351.948151,738.536377 
	C353.545349,732.989319 355.687927,727.495972 358.346252,722.376343 
	C367.571838,704.609314 385.905396,694.740540 405.012115,698.030212 
	C421.838379,700.927307 434.106750,710.430115 440.749207,726.550049 
	C441.363617,728.041016 442.154541,729.459290 442.863464,730.911316 
z"/>
<path fill="#C70101" opacity="1.000000" stroke="none" 
	d="
M442.921570,730.460205 
	C442.154541,729.459290 441.363617,728.041016 440.749207,726.550049 
	C434.106750,710.430115 421.838379,700.927307 405.012115,698.030212 
	C385.905396,694.740540 367.571838,704.609314 358.346252,722.376343 
	C355.687927,727.495972 353.545349,732.989319 351.948151,738.536377 
	C342.698792,770.659180 306.267120,784.066528 279.704132,764.888550 
	C269.069366,757.210449 265.466858,745.654541 263.129486,733.525024 
	C262.501038,730.263855 262.094238,726.960022 261.385925,723.347778 
	C265.395111,686.046753 296.763153,653.094910 334.459656,646.046814 
	C384.831665,636.628723 432.742035,669.030334 442.326996,719.109924 
	C443.005432,722.654785 442.783112,726.372070 442.921570,730.460205 
z"/>
<path fill="#060606" opacity="1.000000" stroke="none" 
	d="
M202.953232,630.970520 
	C194.033478,641.287048 185.333908,651.324829 176.235107,661.823303 
	C172.084351,658.303223 168.105621,654.929016 163.572815,651.084961 
	C181.303040,630.564392 198.841202,610.266113 216.625702,589.682800 
	C220.809601,593.276733 224.817841,596.719849 229.226517,600.506897 
	C220.454926,610.669617 211.814178,620.680725 202.953232,630.970520 
z"/>
<path fill="#060606" opacity="1.000000" stroke="none" 
	d="
M257.061127,850.041931 
	C255.018631,851.749084 253.241562,853.228271 251.173615,854.949585 
	C233.713943,834.473694 216.346390,814.105835 198.584808,793.275818 
	C202.791061,789.670349 206.880524,786.164978 211.214630,782.449890 
	C228.832489,803.109131 246.183395,823.455383 263.776154,844.085205 
	C261.474762,846.129395 259.400665,847.971680 257.061127,850.041931 
z"/>
<path fill="#060606" opacity="1.000000" stroke="none" 
	d="
M503.792603,671.212646 
	C487.842834,652.524109 472.139465,634.085938 456.163666,615.327820 
	C460.446747,611.692200 464.464325,608.281921 468.830109,604.576050 
	C486.398438,625.176392 503.817230,645.601379 521.436035,666.260864 
	C517.074097,669.989136 513.076416,673.406006 508.831696,677.033997 
	C507.036865,674.947632 505.537933,673.205261 503.792603,671.212646 
z"/>
<path fill="#060606" opacity="1.000000" stroke="none" 
	d="
M220.361984,881.301758 
	C218.826035,882.572449 217.564468,883.626770 215.848923,885.060425 
	C198.323196,864.511414 180.923035,844.109680 163.281036,823.424316 
	C167.605011,819.714600 171.594330,816.292053 175.909103,812.590271 
	C193.514969,833.239868 210.935364,853.671936 228.514542,874.290283 
	C225.650864,876.760193 223.143616,878.922729 220.361984,881.301758 
z"/>
<path fill="#060606" opacity="1.000000" stroke="none" 
	d="
M218.014740,659.002625 
	C229.338318,645.939148 240.434967,633.149048 251.778732,620.074158 
	C256.028076,623.732117 260.023102,627.171204 264.357239,630.902161 
	C246.719910,651.309692 229.234192,671.541748 211.334717,692.252563 
	C207.116882,688.625732 203.042725,685.122498 198.746414,681.428223 
	C205.236542,673.877747 211.512177,666.576904 218.014740,659.002625 
z"/>
<path fill="#060606" opacity="1.000000" stroke="none" 
	d="
M243.912079,613.214783 
	C245.834061,614.660645 246.665176,615.643250 244.840164,617.734497 
	C227.806931,637.252258 210.896545,656.877319 193.555084,676.928589 
	C189.293884,673.226990 185.244904,669.709717 180.999741,666.022034 
	C198.806870,645.425659 216.262207,625.236206 233.995361,604.725342 
	C237.390564,607.627197 240.516769,610.299072 243.912079,613.214783 
z"/>
<path fill="#070707" opacity="1.000000" stroke="none" 
	d="
M515.976440,650.049683 
	C512.081604,645.489502 508.396271,641.214905 504.178406,636.322510 
	C508.311890,632.586060 512.293579,628.986877 516.546448,625.142456 
	C524.055725,633.943726 531.366211,642.511902 538.893250,651.333984 
	C534.617432,655.016418 530.617798,658.460938 526.310425,662.170593 
	C522.849304,658.124512 519.517639,654.229858 515.976440,650.049683 
z"/>
<path fill="#070707" opacity="1.000000" stroke="none" 
	d="
M220.538605,854.478149 
	C217.647507,851.035522 214.991074,847.860291 212.115143,844.422729 
	C216.156036,840.772034 220.064224,837.241211 224.393478,833.330017 
	C231.710175,841.898865 238.856033,850.267639 246.366745,859.063721 
	C242.138077,862.691711 238.168427,866.097534 233.804184,869.841919 
	C229.351639,864.683655 225.062439,859.714661 220.538605,854.478149 
z"/>
<path fill="#070707" opacity="1.000000" stroke="none" 
	d="
M483.036987,657.409485 
	C489.914612,665.469604 496.593109,673.276123 503.575928,681.438354 
	C499.400024,685.046692 495.438660,688.469727 490.999420,692.305664 
	C483.906769,684.016541 476.941742,675.876587 469.272278,666.913391 
	C473.879852,663.599182 478.358856,660.377502 483.036987,657.409485 
z"/>
<path fill="#070707" opacity="1.000000" stroke="none" 
	d="
M454.896057,650.133179 
	C449.309662,643.514343 443.948914,637.170105 438.363342,630.559814 
	C442.544922,626.973389 446.541962,623.545288 450.934326,619.778076 
	C457.982086,628.018250 464.869049,636.070435 472.152405,644.586060 
	C467.975494,648.205078 463.904266,651.732483 459.673248,655.398376 
	C458.008728,653.573303 456.565216,651.990601 454.896057,650.133179 
z"/>
<path fill="#070707" opacity="1.000000" stroke="none" 
	d="
M208.438110,814.536743 
	C210.581314,817.080017 212.485641,819.361328 214.749313,822.073120 
	C210.626648,825.697021 206.606796,829.230530 202.308914,833.008362 
	C195.225357,824.717285 188.352493,816.672729 181.146744,808.238586 
	C185.323914,804.622498 189.381317,801.110107 193.710602,797.362366 
	C198.745132,803.239136 203.472183,808.757019 208.438110,814.536743 
z"/>
<path fill="#070808" opacity="1.000000" stroke="none" 
	d="
M484.847107,590.867310 
	C485.829132,590.686218 486.864960,590.432007 487.184448,590.799927 
	C493.821625,598.442627 500.377594,606.155884 507.264587,614.224243 
	C503.077057,617.896667 499.139465,621.349854 494.766510,625.184875 
	C487.657379,616.853638 480.734955,608.741272 473.640381,600.427063 
	C477.516937,597.112366 481.042145,594.098145 484.847107,590.867310 
z"/>
<path fill="#080808" opacity="1.000000" stroke="none" 
	d="
M460.554321,853.561279 
	C466.648193,846.299438 472.506775,839.309326 478.613770,832.022888 
	C482.843262,835.496033 486.796265,838.742126 491.182190,842.343750 
	C484.153870,850.735718 477.289398,858.932007 470.113159,867.500610 
	C465.932190,864.079346 461.997925,860.859924 457.696320,857.339966 
	C458.623047,856.100830 459.471069,854.966980 460.554321,853.561279 
z"/>
<path fill="#070707" opacity="1.000000" stroke="none" 
	d="
M450.212524,851.063599 
	C446.658539,848.072571 443.392761,845.323853 439.941162,842.418762 
	C446.955353,834.040894 453.742645,825.934021 460.997986,817.268127 
	C465.175537,820.682190 469.193939,823.966125 473.600220,827.567017 
	C466.733826,835.773193 460.099701,843.758972 453.329865,851.627991 
	C452.981812,852.032532 451.470428,851.436279 450.212524,851.063599 
z"/>
<path fill="#070707" opacity="1.000000" stroke="none" 
	d="
M492.026093,850.958862 
	C493.465637,849.366760 494.660797,848.041077 496.110657,846.432861 
	C500.257904,849.839722 504.186401,853.066895 508.525909,856.631653 
	C501.517090,865.006470 494.653076,873.208191 487.402435,881.871887 
	C483.189514,878.429810 479.169006,875.144958 474.810699,871.584106 
	C480.598511,864.640930 486.190094,857.933105 492.026093,850.958862 
z"/>
<path fill="#070808" opacity="1.000000" stroke="none" 
	d="
M534.799255,818.235596 
	C536.043152,819.324829 537.018372,820.183472 538.235291,821.255066 
	C531.403442,829.399292 524.735352,837.348206 517.752319,845.672607 
	C513.547424,842.074829 509.603912,838.700745 505.392731,835.097656 
	C512.199890,826.969482 518.772522,819.121277 525.744812,810.795898 
	C528.765442,813.274536 531.648010,815.639771 534.799255,818.235596 
z"/>
<path fill="#070707" opacity="1.000000" stroke="none" 
	d="
M499.088470,829.734253 
	C495.455475,826.571106 492.070374,823.641296 488.370209,820.438721 
	C495.129913,812.372498 501.716675,804.512573 508.509399,796.406860 
	C512.745300,799.888672 516.704651,803.143127 521.068665,806.730225 
	C514.460327,814.610352 507.986542,822.363159 501.424988,830.041016 
	C501.143219,830.370728 500.051056,830.007812 499.088470,829.734253 
z"/>
<path fill="#070707" opacity="1.000000" stroke="none" 
	d="
M489.101318,809.143860 
	C487.163422,811.416138 485.459045,813.416077 483.501343,815.713257 
	C479.385956,812.188965 475.525330,808.882874 471.191986,805.171936 
	C477.794250,797.302368 484.223633,789.638916 490.870575,781.716125 
	C495.134247,785.245789 499.045624,788.483765 503.369751,792.063477 
	C498.605103,797.769592 493.969971,803.320557 489.101318,809.143860 
z"/>
<path fill="#FEFEFE" opacity="1.000000" stroke="none" 
	d="
M585.613098,594.648071 
	C595.259827,568.164429 604.905701,541.680420 614.553833,515.197327 
	C616.881042,508.809479 619.245667,502.435028 621.538086,496.034760 
	C623.560547,490.388428 622.400879,488.691132 616.466064,488.686279 
	C589.970398,488.664551 563.473999,488.797485 536.979309,488.634583 
	C518.461426,488.520691 500.053955,486.987518 482.363098,481.033234 
	C417.649811,459.252228 376.461548,415.218994 362.426331,348.450958 
	C351.539093,296.658447 360.115601,247.296539 392.181793,203.895767 
	C421.061707,164.807526 459.846680,141.214645 508.147675,134.039886 
	C516.838745,132.748886 525.706604,132.104706 534.494263,132.091507 
	C625.979126,131.954193 717.464722,132.179565 808.949219,131.954422 
	C886.889404,131.762619 957.856201,183.275238 977.915222,261.767334 
	C995.448792,330.377136 980.062744,391.868256 928.085388,441.821899 
	C901.468201,467.402679 869.048157,482.215698 832.314819,486.914093 
	C823.095764,488.093262 813.731689,488.546051 804.430115,488.599701 
	C770.770020,488.793915 737.108093,488.716095 703.447205,488.612244 
	C700.208313,488.602264 697.946716,489.593170 695.608521,491.830292 
	C659.493286,526.384583 623.282776,560.839355 586.600281,595.243042 
	C585.941772,594.995300 585.777405,594.821655 585.613098,594.648071 
M680.997009,391.146698 
	C671.269714,376.964996 661.672974,362.690094 651.679382,348.698608 
	C650.118958,346.513855 646.811707,344.534729 644.204895,344.389679 
	C640.524414,344.184814 638.755615,347.528595 637.775879,351.748108 
	C637.682739,353.263733 637.589600,354.779358 636.827148,355.926727 
	C630.577759,348.876526 625.488770,349.140991 622.282349,357.109375 
	C619.530396,360.381195 621.518127,363.213257 622.259033,366.044464 
	C615.836548,365.673615 614.300842,366.732605 611.939819,373.854248 
	C610.619568,378.901306 613.873657,382.348236 615.387512,386.143860 
	C612.757385,387.197754 608.765320,387.590576 607.849731,389.476776 
	C606.761169,391.719208 607.377625,395.872345 608.876160,398.114136 
	C619.669189,414.260162 630.873230,430.131500 641.094849,446.282898 
	C623.938416,444.440582 614.717102,435.866821 611.878540,419.451385 
	C611.645752,418.105377 609.823547,417.034180 608.739929,415.835266 
	C607.573853,417.161682 605.357544,418.522430 605.399597,419.809357 
	C606.007263,438.395691 618.167603,451.303101 635.410156,452.123810 
	C641.843689,452.430054 642.067322,452.171478 642.540649,446.327698 
	C648.065002,451.962128 654.784851,455.243500 662.427368,457.120941 
	C689.514954,463.775146 716.473145,438.009308 710.311340,410.852600 
	C708.786865,404.133789 705.390747,397.852753 703.030457,391.307190 
	C699.928589,382.704773 696.997559,374.040649 693.998718,365.401123 
	C692.649719,361.514862 690.756287,358.234192 685.833313,359.197784 
	C681.650330,360.016571 680.242188,362.904999 680.986450,368.607513 
	C681.093811,369.430145 681.281677,370.242676 681.442932,371.057739 
	C682.571228,376.759644 683.782471,382.446808 684.791382,388.169678 
	C685.174438,390.342285 686.093323,393.152496 681.893616,392.569855 
	C681.634583,392.322144 681.375549,392.074402 680.997009,391.146698 
M894.453125,206.128296 
	C892.212585,204.164368 890.239624,201.710403 887.687622,200.316956 
	C872.511963,192.030823 856.762207,191.707672 841.142029,198.606308 
	C821.814453,207.142288 822.827454,230.195740 837.907898,238.932709 
	C838.851624,239.479492 839.867432,240.872375 839.887146,241.890244 
	C840.046997,250.150421 839.976990,258.415039 839.976990,267.032227 
	C832.315674,267.032227 825.219910,267.032227 818.121521,267.032227 
	C818.121521,269.636108 818.121521,271.869812 818.121521,274.238708 
	C848.169189,274.238708 877.936157,274.238708 907.930969,274.238708 
	C907.930969,271.813080 907.930969,269.573303 907.930969,266.810364 
	C900.560059,266.810364 893.331543,266.810364 885.964905,266.810364 
	C885.964905,258.472260 885.814026,250.649399 886.090820,242.841721 
	C886.146851,241.259491 887.458618,239.246490 888.800171,238.260101 
	C899.736084,230.219788 902.102844,218.401886 894.453125,206.128296 
M427.902588,196.110275 
	C425.694305,197.237457 423.319855,198.126694 421.306366,199.532776 
	C412.316772,205.810333 409.037170,217.070755 412.881531,227.861526 
	C416.454224,237.889664 427.267365,244.539505 438.578552,243.664536 
	C456.837494,242.252136 467.498596,227.030106 461.729309,210.609634 
	C457.381561,198.235107 443.209747,191.948563 427.902588,196.110275 
M537.761658,282.888916 
	C552.972412,288.750946 568.258789,289.000214 583.414978,282.947327 
	C589.666260,280.450806 593.912781,275.835846 593.967834,268.608673 
	C594.024536,261.163116 589.730530,256.477661 583.263245,253.879425 
	C568.777100,248.059570 554.030090,248.254837 539.443176,253.371170 
	C533.240051,255.546936 528.465759,259.626099 527.781250,266.913055 
	C527.076904,274.411682 530.963989,279.140717 537.761658,282.888916 
M580.400696,216.942001 
	C572.487183,216.942001 564.573608,216.942001 556.726440,216.942001 
	C556.726440,219.706711 556.726440,221.778229 556.726440,224.323547 
	C566.097229,224.323547 575.152527,224.323547 584.571777,224.323547 
	C584.571777,232.743118 584.571777,240.682358 584.571777,248.702484 
	C587.729187,248.702484 590.495117,248.702484 593.447876,248.702484 
	C593.447876,228.315018 593.447876,208.152237 593.447876,187.917648 
	C590.336121,187.917648 587.568542,187.917648 584.335815,187.917648 
	C584.335815,191.725159 584.335815,195.293076 584.335815,199.415497 
	C574.834167,199.415497 565.787659,199.415497 556.737183,199.415497 
	C556.737183,202.059586 556.737183,204.131790 556.737183,206.786713 
	C566.096558,206.786713 575.137512,206.786713 584.350403,206.786713 
	C584.350403,209.694305 584.650330,212.071915 584.216064,214.306870 
	C584.017273,215.329849 582.373718,216.072128 580.400696,216.942001 
M666.375427,236.435059 
	C663.332886,225.887390 655.565308,219.875488 644.082703,219.181137 
	C631.676270,218.430908 620.767517,226.645203 619.061829,238.021744 
	C617.171631,250.628738 623.975830,260.984497 635.937439,264.108521 
	C651.374634,268.140320 670.017639,258.544556 666.375427,236.435059 
M681.138916,234.499954 
	C681.138916,251.922775 681.138916,269.345581 681.138916,286.919891 
	C684.391602,286.919891 687.132874,286.919891 690.376221,286.919891 
	C690.376221,269.988068 690.376221,253.280975 690.376221,236.029999 
	C696.094543,236.029999 701.317322,236.029999 706.561523,236.029999 
	C706.561523,233.361313 706.561523,231.250229 706.561523,228.580566 
	C701.143982,228.580566 695.906799,228.580566 690.100830,228.580566 
	C690.100830,214.664413 690.100830,201.296814 690.100830,188.227081 
	C686.777954,188.227081 684.047668,188.227081 681.138916,188.227081 
	C681.138916,203.578964 681.138916,218.539444 681.138916,234.499954 
M746.629883,226.546722 
	C746.009949,216.798904 745.390076,207.051071 744.765808,197.235031 
	C742.251587,197.235031 739.639465,197.235031 736.568787,197.235031 
	C737.516602,220.808243 737.022217,243.829926 714.834229,259.138641 
	C716.869934,261.562866 718.644836,263.676453 720.431335,265.803894 
	C731.509766,258.847534 736.813110,248.105957 741.180237,235.941437 
	C745.290894,247.592712 750.546448,257.170380 760.769531,263.628906 
	C762.537292,261.159760 764.142700,258.917450 765.849243,256.533813 
	C755.297485,249.318741 749.497559,239.352524 746.629883,226.546722 
M771.678223,235.719742 
	C771.678223,251.136566 771.678223,266.553375 771.678223,281.892944 
	C774.845276,281.892944 777.386780,281.892944 779.879517,281.892944 
	C779.879517,251.127640 779.879517,220.715332 779.879517,190.178360 
	C777.095947,190.178360 774.531982,190.178360 771.435242,190.178360 
	C771.435242,201.303299 771.435242,212.175964 771.435242,223.408554 
	C765.791321,223.408554 760.676208,223.408554 755.337646,223.408554 
	C755.337646,226.029388 755.337646,228.267242 755.337646,230.969803 
	C759.599060,230.969803 763.735718,231.164978 767.843628,230.905655 
	C770.914673,230.711807 772.228027,231.664993 771.678223,235.719742 
M486.750000,227.485199 
	C487.973236,226.832809 489.162445,225.709106 490.426178,225.617874 
	C493.986542,225.360779 497.577515,225.528076 501.006287,225.528076 
	C501.006287,222.554047 501.006287,220.327271 501.006287,217.725220 
	C496.053894,217.725220 491.460052,217.725220 486.538696,217.725220 
	C486.538696,207.588181 486.538696,197.841324 486.538696,187.944946 
	C483.442657,187.944946 480.690948,187.944946 477.845642,187.944946 
	C477.845642,212.371429 477.845642,236.550201 477.845642,260.653503 
	C480.916199,260.653503 483.661407,260.653503 486.741455,260.653503 
	C486.741455,249.726974 486.741455,239.107239 486.750000,227.485199 
M517.672852,200.718567 
	C517.672852,214.350494 517.672852,227.982437 517.672852,241.918762 
	C535.298523,242.157608 552.468140,241.911102 569.564880,238.127365 
	C569.226440,235.552261 568.952026,233.464355 568.713989,231.653183 
	C554.673218,232.734146 540.885986,233.795593 526.549194,234.899353 
	C526.549194,220.449081 526.549194,207.233948 526.549194,194.021057 
	C523.338318,194.021057 520.607361,194.021057 517.672852,194.021057 
	C517.672852,196.162094 517.672852,197.976196 517.672852,200.718567 
M791.889709,278.473572 
	C791.889709,281.253204 791.889709,284.032867 791.889709,286.884033 
	C794.953674,286.884033 797.527771,286.884033 800.164551,286.884033 
	C800.164551,253.796646 800.164551,220.960632 800.164551,187.988037 
	C797.335144,187.988037 794.778625,187.988037 791.889709,187.988037 
	C791.889709,217.991562 791.889709,247.734482 791.889709,278.473572 
M433.877106,256.866882 
	C433.136200,249.666214 427.997162,255.270844 425.019104,253.073853 
	C425.019104,264.126068 425.019104,274.348969 425.019104,284.780273 
	C447.026337,284.780273 468.894379,284.780273 490.759430,284.780273 
	C490.759430,282.329498 490.759430,280.107697 490.759430,277.525085 
	C471.748932,277.525085 453.020050,277.525085 433.877197,277.525085 
	C433.877197,270.707245 433.877197,264.250977 433.877106,256.866882 
M619.598022,210.979706 
	C636.997253,210.979706 654.396423,210.979706 671.537231,210.979706 
	C671.537231,208.092010 671.537231,206.003860 671.537231,203.447876 
	C663.279175,203.447876 655.356018,203.447876 647.053589,203.447876 
	C647.053589,198.386887 647.053589,193.795334 647.053589,189.190735 
	C643.904297,189.190735 641.164795,189.190735 638.043945,189.190735 
	C638.043945,194.039246 638.043945,198.635925 638.043945,203.685104 
	C629.588684,203.685104 621.514893,203.685104 613.038086,203.685104 
	C613.038086,205.271301 612.998352,206.396820 613.049438,207.518188 
	C613.099243,208.613419 613.241821,209.704437 613.360718,210.979706 
	C615.328003,210.979706 616.977783,210.979706 619.598022,210.979706 
M710.355469,381.811615 
	C710.978210,380.392395 712.093262,378.991547 712.146973,377.551056 
	C712.646179,364.165649 703.059570,350.877258 690.031799,347.037811 
	C686.571838,346.018188 682.883606,345.483368 679.284424,345.398956 
	C678.171631,345.372864 677.006592,347.572174 675.865417,348.752563 
	C677.031128,349.843201 678.069702,351.688446 679.381958,351.909698 
	C695.333008,354.599121 702.345764,361.473755 705.602966,377.446625 
	C705.953308,379.164673 708.177429,380.500641 710.355469,381.811615 
M619.697998,458.885071 
	C621.521057,457.967560 623.344116,457.050079 625.167175,456.132568 
	C623.790039,454.829346 622.583069,452.675598 621.008179,452.360382 
	C610.455017,450.248016 607.824890,447.655518 605.276978,436.728516 
	C604.891846,435.076843 602.936340,433.791321 601.707275,432.336426 
	C600.788452,434.016510 599.092712,435.689575 599.077515,437.377777 
	C598.982544,447.933624 606.205933,455.578522 619.697998,458.885071 
M702.281494,346.882385 
	C708.579468,349.561951 711.533264,354.425903 712.216309,361.147583 
	C712.363220,362.593964 714.373291,363.851013 715.525085,365.195343 
	C716.640381,364.215485 718.545837,363.375763 718.748352,362.233978 
	C720.713013,351.156342 706.382507,336.962463 695.495972,339.151276 
	C694.320862,339.387512 692.439697,341.061279 692.566895,341.764008 
	C692.809204,343.102448 694.028259,344.744141 695.273254,345.309143 
	C697.168213,346.169128 699.430298,346.220001 702.281494,346.882385 
z"/>
<path fill="#FEFEFE" opacity="1.000000" stroke="none" 
	d="
M586.332214,595.447571 
	C586.319275,596.267456 586.080322,596.808777 585.841309,597.350037 
	C585.574402,597.143616 585.307556,596.937134 585.040649,596.730652 
	C585.090088,596.175171 585.139587,595.619629 585.401123,594.856079 
	C585.777405,594.821655 585.941772,594.995300 586.332214,595.447571 
z"/>
<path fill="#FFDC5E" opacity="1.000000" stroke="none" 
	d="
M641.946960,446.089935 
	C630.873230,430.131500 619.669189,414.260162 608.876160,398.114136 
	C607.377625,395.872345 606.761169,391.719208 607.849731,389.476776 
	C608.765320,387.590576 612.757385,387.197754 616.089111,386.268524 
	C623.216919,395.600159 629.643005,404.807159 636.069153,414.014160 
	C636.751831,413.548950 637.434509,413.083771 638.117249,412.618591 
	C630.531250,398.755829 620.546448,386.376740 612.153381,373.013184 
	C614.300842,366.732605 615.836548,365.673615 622.957764,366.237701 
	C631.703003,378.285034 639.749634,390.139099 647.796204,401.993164 
	C648.397949,401.760101 648.999634,401.527008 649.601379,401.293915 
	C649.266479,399.904999 649.287537,398.277710 648.541687,397.163940 
	C640.885925,385.731476 633.049255,374.419983 625.417725,362.971649 
	C624.186157,361.124084 623.713562,358.770630 622.890137,356.651031 
	C625.488770,349.140991 630.577759,348.876526 637.359009,356.304291 
	C645.308960,367.886322 652.701416,379.108093 660.208069,390.252960 
	C660.665466,390.932190 662.028259,391.001648 662.969788,391.354828 
	C662.946716,390.356842 663.264404,389.169922 662.835754,388.396912 
	C661.631165,386.224854 660.107239,384.231293 658.730286,382.153351 
	C651.870422,371.801147 645.017395,361.444458 638.161987,351.089325 
	C638.755615,347.528595 640.524414,344.184814 644.204895,344.389679 
	C646.811707,344.534729 650.118958,346.513855 651.679382,348.698608 
	C661.672974,362.690094 671.269714,376.964996 680.707520,391.561157 
	C666.127014,401.310211 661.831787,422.639648 671.628784,436.232666 
	C672.582642,437.556244 674.406189,438.253113 675.825989,439.240906 
	C676.127319,438.838013 676.428711,438.435150 676.730042,438.032257 
	C676.449341,437.471375 676.226257,436.871796 675.879517,436.355194 
	C666.969055,423.078918 669.619934,407.041901 680.083313,396.373047 
	C680.962341,395.476776 681.437134,394.184113 682.099670,393.075592 
	C686.093323,393.152496 685.174438,390.342285 684.791382,388.169678 
	C683.782471,382.446808 682.571228,376.759644 681.442932,371.057739 
	C681.281677,370.242676 681.093811,369.430145 680.986450,368.607513 
	C680.242188,362.904999 681.650330,360.016571 685.833313,359.197784 
	C690.756287,358.234192 692.649719,361.514862 693.998718,365.401123 
	C696.997559,374.040649 699.928589,382.704773 703.030457,391.307190 
	C705.390747,397.852753 708.786865,404.133789 710.311340,410.852600 
	C716.473145,438.009308 689.514954,463.775146 662.427368,457.120941 
	C654.784851,455.243500 648.065002,451.962128 642.272339,446.169312 
	C642.003967,446.010925 641.946960,446.089935 641.946960,446.089935 
z"/>
<path fill="#040404" opacity="1.000000" stroke="none" 
	d="
M894.676392,206.415344 
	C902.102844,218.401886 899.736084,230.219788 888.800171,238.260101 
	C887.458618,239.246490 886.146851,241.259491 886.090820,242.841721 
	C885.814026,250.649399 885.964905,258.472260 885.964905,266.810364 
	C893.331543,266.810364 900.560059,266.810364 907.930969,266.810364 
	C907.930969,269.573303 907.930969,271.813080 907.930969,274.238708 
	C877.936157,274.238708 848.169189,274.238708 818.121521,274.238708 
	C818.121521,271.869812 818.121521,269.636108 818.121521,267.032227 
	C825.219910,267.032227 832.315674,267.032227 839.976990,267.032227 
	C839.976990,258.415039 840.046997,250.150421 839.887146,241.890244 
	C839.867432,240.872375 838.851624,239.479492 837.907898,238.932709 
	C822.827454,230.195740 821.814453,207.142288 841.142029,198.606308 
	C856.762207,191.707672 872.511963,192.030823 887.687622,200.316956 
	C890.239624,201.710403 892.212585,204.164368 894.676392,206.415344 
M850.603577,236.142380 
	C860.890381,239.021683 870.998657,238.775055 880.639282,233.877655 
	C886.473389,230.913986 890.279846,226.287735 890.221008,219.339035 
	C890.164062,212.608032 886.409607,208.107666 880.785278,205.205154 
	C871.339783,200.330688 861.334656,199.918152 851.229431,202.695572 
	C841.334961,205.415054 835.744141,211.400253 835.444580,219.031494 
	C835.154297,226.424622 840.025330,232.160995 850.603577,236.142380 
M875.528931,243.829620 
	C866.813477,243.829620 858.098022,243.829620 849.337891,243.829620 
	C849.337891,251.585342 849.337891,259.131439 849.337891,266.594666 
	C858.660522,266.594666 867.682373,266.594666 876.457703,266.594666 
	C876.457703,258.813782 876.457703,251.389862 875.528931,243.829620 
z"/>
<path fill="#070707" opacity="1.000000" stroke="none" 
	d="
M428.309204,196.037659 
	C443.209747,191.948563 457.381561,198.235107 461.729309,210.609634 
	C467.498596,227.030106 456.837494,242.252136 438.578552,243.664536 
	C427.267365,244.539505 416.454224,237.889664 412.881531,227.861526 
	C409.037170,217.070755 412.316772,205.810333 421.306366,199.532776 
	C423.319855,198.126694 425.694305,197.237457 428.309204,196.037659 
M449.866730,207.664871 
	C448.684113,206.759048 447.579102,205.721817 446.305634,204.969864 
	C440.375549,201.468307 431.850433,201.960602 426.533478,206.026627 
	C421.009155,210.251175 418.882172,217.316238 421.008911,224.376984 
	C422.952881,230.830887 428.540985,235.289688 435.856384,235.735443 
	C442.621582,236.147659 448.491486,233.936981 451.912384,227.792648 
	C455.639465,221.098373 455.139740,214.418396 449.866730,207.664871 
z"/>
<path fill="#070707" opacity="1.000000" stroke="none" 
	d="
M537.429077,282.718689 
	C530.963989,279.140717 527.076904,274.411682 527.781250,266.913055 
	C528.465759,259.626099 533.240051,255.546936 539.443176,253.371170 
	C554.030090,248.254837 568.777100,248.059570 583.263245,253.879425 
	C589.730530,256.477661 594.024536,261.163116 593.967834,268.608673 
	C593.912781,275.835846 589.666260,280.450806 583.414978,282.947327 
	C568.258789,289.000214 552.972412,288.750946 537.429077,282.718689 
M584.462463,266.224243 
	C582.448792,264.132263 580.814392,261.102081 578.356628,260.108368 
	C566.806641,255.438522 554.987610,255.537369 543.339050,259.957031 
	C539.589294,261.379761 536.834656,264.052551 536.879944,268.530640 
	C536.925415,273.027100 539.830017,275.581360 543.549133,276.970154 
	C555.045288,281.263123 566.690308,281.277466 578.159668,276.925751 
	C582.461914,275.293396 585.388489,272.154144 584.462463,266.224243 
z"/>
<path fill="#121212" opacity="1.000000" stroke="none" 
	d="
M580.893066,216.941849 
	C582.373718,216.072128 584.017273,215.329849 584.216064,214.306870 
	C584.650330,212.071915 584.350403,209.694305 584.350403,206.786713 
	C575.137512,206.786713 566.096558,206.786713 556.737183,206.786713 
	C556.737183,204.131790 556.737183,202.059586 556.737183,199.415497 
	C565.787659,199.415497 574.834167,199.415497 584.335815,199.415497 
	C584.335815,195.293076 584.335815,191.725159 584.335815,187.917648 
	C587.568542,187.917648 590.336121,187.917648 593.447876,187.917648 
	C593.447876,208.152237 593.447876,228.315018 593.447876,248.702484 
	C590.495117,248.702484 587.729187,248.702484 584.571777,248.702484 
	C584.571777,240.682358 584.571777,232.743118 584.571777,224.323547 
	C575.152527,224.323547 566.097229,224.323547 556.726440,224.323547 
	C556.726440,221.778229 556.726440,219.706711 556.726440,216.942001 
	C564.573608,216.942001 572.487183,216.942001 580.893066,216.941849 
z"/>
<path fill="#080808" opacity="1.000000" stroke="none" 
	d="
M666.530640,236.830536 
	C670.017639,258.544556 651.374634,268.140320 635.937439,264.108521 
	C623.975830,260.984497 617.171631,250.628738 619.061829,238.021744 
	C620.767517,226.645203 631.676270,218.430908 644.082703,219.181137 
	C655.565308,219.875488 663.332886,225.887390 666.530640,236.830536 
M633.881653,254.856995 
	C635.077148,255.434799 636.226807,256.149597 637.475891,256.567291 
	C643.704834,258.650330 651.014282,256.853363 654.849792,252.147278 
	C659.052307,246.990891 659.412598,241.158264 656.874268,235.239258 
	C654.428955,229.537354 648.703918,226.579605 641.712280,226.904465 
	C635.524414,227.191956 630.290405,230.900726 628.286194,236.418106 
	C625.931885,242.899124 627.696655,249.270859 633.881653,254.856995 
z"/>
<path fill="#070707" opacity="1.000000" stroke="none" 
	d="
M681.138916,233.999939 
	C681.138916,218.539444 681.138916,203.578964 681.138916,188.227081 
	C684.047668,188.227081 686.777954,188.227081 690.100830,188.227081 
	C690.100830,201.296814 690.100830,214.664413 690.100830,228.580566 
	C695.906799,228.580566 701.143982,228.580566 706.561523,228.580566 
	C706.561523,231.250229 706.561523,233.361313 706.561523,236.029999 
	C701.317322,236.029999 696.094543,236.029999 690.376221,236.029999 
	C690.376221,253.280975 690.376221,269.988068 690.376221,286.919891 
	C687.132874,286.919891 684.391602,286.919891 681.138916,286.919891 
	C681.138916,269.345581 681.138916,251.922775 681.138916,233.999939 
z"/>
<path fill="#070707" opacity="1.000000" stroke="none" 
	d="
M746.721191,226.967468 
	C749.497559,239.352524 755.297485,249.318741 765.849243,256.533813 
	C764.142700,258.917450 762.537292,261.159760 760.769531,263.628906 
	C750.546448,257.170380 745.290894,247.592712 741.180237,235.941437 
	C736.813110,248.105957 731.509766,258.847534 720.431335,265.803894 
	C718.644836,263.676453 716.869934,261.562866 714.834229,259.138641 
	C737.022217,243.829926 737.516602,220.808243 736.568787,197.235031 
	C739.639465,197.235031 742.251587,197.235031 744.765808,197.235031 
	C745.390076,207.051071 746.009949,216.798904 746.721191,226.967468 
z"/>
<path fill="#030303" opacity="1.000000" stroke="none" 
	d="
M771.678223,235.246185 
	C772.228027,231.664993 770.914673,230.711807 767.843628,230.905655 
	C763.735718,231.164978 759.599060,230.969803 755.337646,230.969803 
	C755.337646,228.267242 755.337646,226.029388 755.337646,223.408554 
	C760.676208,223.408554 765.791321,223.408554 771.435242,223.408554 
	C771.435242,212.175964 771.435242,201.303299 771.435242,190.178360 
	C774.531982,190.178360 777.095947,190.178360 779.879517,190.178360 
	C779.879517,220.715332 779.879517,251.127640 779.879517,281.892944 
	C777.386780,281.892944 774.845276,281.892944 771.678223,281.892944 
	C771.678223,266.553375 771.678223,251.136566 771.678223,235.246185 
z"/>
<path fill="#080808" opacity="1.000000" stroke="none" 
	d="
M486.745728,227.986359 
	C486.741455,239.107239 486.741455,249.726974 486.741455,260.653503 
	C483.661407,260.653503 480.916199,260.653503 477.845642,260.653503 
	C477.845642,236.550201 477.845642,212.371429 477.845642,187.944946 
	C480.690948,187.944946 483.442657,187.944946 486.538696,187.944946 
	C486.538696,197.841324 486.538696,207.588181 486.538696,217.725220 
	C491.460052,217.725220 496.053894,217.725220 501.006287,217.725220 
	C501.006287,220.327271 501.006287,222.554047 501.006287,225.528076 
	C497.577515,225.528076 493.986542,225.360779 490.426178,225.617874 
	C489.162445,225.709106 487.973236,226.832809 486.745728,227.986359 
z"/>
<path fill="#0A0A0A" opacity="1.000000" stroke="none" 
	d="
M517.672852,200.254440 
	C517.672852,197.976196 517.672852,196.162094 517.672852,194.021057 
	C520.607361,194.021057 523.338318,194.021057 526.549194,194.021057 
	C526.549194,207.233948 526.549194,220.449081 526.549194,234.899353 
	C540.885986,233.795593 554.673218,232.734146 568.713989,231.653183 
	C568.952026,233.464355 569.226440,235.552261 569.564880,238.127365 
	C552.468140,241.911102 535.298523,242.157608 517.672852,241.918762 
	C517.672852,227.982437 517.672852,214.350494 517.672852,200.254440 
z"/>
<path fill="#000000" opacity="1.000000" stroke="none" 
	d="
M791.889709,277.975494 
	C791.889709,247.734482 791.889709,217.991562 791.889709,187.988037 
	C794.778625,187.988037 797.335144,187.988037 800.164551,187.988037 
	C800.164551,220.960632 800.164551,253.796646 800.164551,286.884033 
	C797.527771,286.884033 794.953674,286.884033 791.889709,286.884033 
	C791.889709,284.032867 791.889709,281.253204 791.889709,277.975494 
z"/>
<path fill="#030303" opacity="1.000000" stroke="none" 
	d="
M433.877136,257.330811 
	C433.877197,264.250977 433.877197,270.707245 433.877197,277.525085 
	C453.020050,277.525085 471.748932,277.525085 490.759430,277.525085 
	C490.759430,280.107697 490.759430,282.329498 490.759430,284.780273 
	C468.894379,284.780273 447.026337,284.780273 425.019104,284.780273 
	C425.019104,274.348969 425.019104,264.126068 425.019104,253.073853 
	C427.997162,255.270844 433.136200,249.666214 433.877136,257.330811 
z"/>
<path fill="#030303" opacity="1.000000" stroke="none" 
	d="
M619.112793,210.979706 
	C616.977783,210.979706 615.328003,210.979706 613.360718,210.979706 
	C613.241821,209.704437 613.099243,208.613419 613.049438,207.518188 
	C612.998352,206.396820 613.038086,205.271301 613.038086,203.685104 
	C621.514893,203.685104 629.588684,203.685104 638.043945,203.685104 
	C638.043945,198.635925 638.043945,194.039246 638.043945,189.190735 
	C641.164795,189.190735 643.904297,189.190735 647.053589,189.190735 
	C647.053589,193.795334 647.053589,198.386887 647.053589,203.447876 
	C655.356018,203.447876 663.279175,203.447876 671.537231,203.447876 
	C671.537231,206.003860 671.537231,208.092010 671.537231,210.979706 
	C654.396423,210.979706 636.997253,210.979706 619.112793,210.979706 
z"/>
<path fill="#62B0ED" opacity="1.000000" stroke="none" 
	d="
M641.964722,446.038696 
	C642.067322,452.171478 641.843689,452.430054 635.410156,452.123810 
	C618.167603,451.303101 606.007263,438.395691 605.399597,419.809357 
	C605.357544,418.522430 607.573853,417.161682 608.739929,415.835266 
	C609.823547,417.034180 611.645752,418.105377 611.878540,419.451385 
	C614.717102,435.866821 623.938416,444.440582 641.520874,446.186401 
	C641.946960,446.089935 642.003967,446.010925 641.964722,446.038696 
z"/>
<path fill="#62B0ED" opacity="1.000000" stroke="none" 
	d="
M709.943909,381.912720 
	C708.177429,380.500641 705.953308,379.164673 705.602966,377.446625 
	C702.345764,361.473755 695.333008,354.599121 679.381958,351.909698 
	C678.069702,351.688446 677.031128,349.843201 675.865417,348.752563 
	C677.006592,347.572174 678.171631,345.372864 679.284424,345.398956 
	C682.883606,345.483368 686.571838,346.018188 690.031799,347.037811 
	C703.059570,350.877258 712.646179,364.165649 712.146973,377.551056 
	C712.093262,378.991547 710.978210,380.392395 709.943909,381.912720 
z"/>
<path fill="#62B0ED" opacity="1.000000" stroke="none" 
	d="
M619.282104,458.852539 
	C606.205933,455.578522 598.982544,447.933624 599.077515,437.377777 
	C599.092712,435.689575 600.788452,434.016510 601.707275,432.336426 
	C602.936340,433.791321 604.891846,435.076843 605.276978,436.728516 
	C607.824890,447.655518 610.455017,450.248016 621.008179,452.360382 
	C622.583069,452.675598 623.790039,454.829346 625.167175,456.132568 
	C623.344116,457.050079 621.521057,457.967560 619.282104,458.852539 
z"/>
<path fill="#64B1ED" opacity="1.000000" stroke="none" 
	d="
M701.908997,346.748444 
	C699.430298,346.220001 697.168213,346.169128 695.273254,345.309143 
	C694.028259,344.744141 692.809204,343.102448 692.566895,341.764008 
	C692.439697,341.061279 694.320862,339.387512 695.495972,339.151276 
	C706.382507,336.962463 720.713013,351.156342 718.748352,362.233978 
	C718.545837,363.375763 716.640381,364.215485 715.525085,365.195312 
	C714.373291,363.851013 712.363220,362.593964 712.216309,361.147583 
	C711.533264,354.425903 708.579468,349.561951 701.908997,346.748444 
z"/>
<path fill="#F09B47" opacity="1.000000" stroke="none" 
	d="
M681.996643,392.822723 
	C681.437134,394.184113 680.962341,395.476776 680.083313,396.373047 
	C669.619934,407.041901 666.969055,423.078918 675.879517,436.355194 
	C676.226257,436.871796 676.449341,437.471375 676.730042,438.032257 
	C676.428711,438.435150 676.127319,438.838013 675.825989,439.240906 
	C674.406189,438.253113 672.582642,437.556244 671.628784,436.232666 
	C661.831787,422.639648 666.127014,401.310211 680.767212,391.901184 
	C681.375549,392.074402 681.634583,392.322144 681.996643,392.822723 
z"/>
<path fill="#F09B47" opacity="1.000000" stroke="none" 
	d="
M622.586243,356.880188 
	C623.713562,358.770630 624.186157,361.124084 625.417725,362.971649 
	C633.049255,374.419983 640.885925,385.731476 648.541687,397.163940 
	C649.287537,398.277710 649.266479,399.904999 649.601379,401.293915 
	C648.999634,401.527008 648.397949,401.760101 647.796204,401.993164 
	C639.749634,390.139099 631.703003,378.285034 623.385620,366.256287 
	C621.518127,363.213257 619.530396,360.381195 622.586243,356.880188 
z"/>
<path fill="#F09B47" opacity="1.000000" stroke="none" 
	d="
M637.968933,351.418701 
	C645.017395,361.444458 651.870422,371.801147 658.730286,382.153351 
	C660.107239,384.231293 661.631165,386.224854 662.835754,388.396912 
	C663.264404,389.169922 662.946716,390.356842 662.969788,391.354828 
	C662.028259,391.001648 660.665466,390.932190 660.208069,390.252960 
	C652.701416,379.108093 645.308960,367.886322 637.693604,356.488403 
	C637.589600,354.779358 637.682739,353.263733 637.968933,351.418701 
z"/>
<path fill="#F09B47" opacity="1.000000" stroke="none" 
	d="
M612.046631,373.433716 
	C620.546448,386.376740 630.531250,398.755829 638.117249,412.618591 
	C637.434509,413.083771 636.751831,413.548950 636.069153,414.014160 
	C629.643005,404.807159 623.216919,395.600159 616.508911,386.251709 
	C613.873657,382.348236 610.619568,378.901306 612.046631,373.433716 
z"/>
<path fill="#FCFCFC" opacity="1.000000" stroke="none" 
	d="
M850.212280,236.052185 
	C840.025330,232.160995 835.154297,226.424622 835.444580,219.031494 
	C835.744141,211.400253 841.334961,205.415054 851.229431,202.695572 
	C861.334656,199.918152 871.339783,200.330688 880.785278,205.205154 
	C886.409607,208.107666 890.164062,212.608032 890.221008,219.339035 
	C890.279846,226.287735 886.473389,230.913986 880.639282,233.877655 
	C870.998657,238.775055 860.890381,239.021683 850.212280,236.052185 
z"/>
<path fill="#FBFBFB" opacity="1.000000" stroke="none" 
	d="
M875.993286,243.897781 
	C876.457703,251.389862 876.457703,258.813782 876.457703,266.594666 
	C867.682373,266.594666 858.660522,266.594666 849.337891,266.594666 
	C849.337891,259.131439 849.337891,251.585342 849.337891,243.829620 
	C858.098022,243.829620 866.813477,243.829620 875.993286,243.897781 
z"/>
<path fill="#FBFBFB" opacity="1.000000" stroke="none" 
	d="
M450.103577,207.955688 
	C455.139740,214.418396 455.639465,221.098373 451.912384,227.792648 
	C448.491486,233.936981 442.621582,236.147659 435.856384,235.735443 
	C428.540985,235.289688 422.952881,230.830887 421.008911,224.376984 
	C418.882172,217.316238 421.009155,210.251175 426.533478,206.026627 
	C431.850433,201.960602 440.375549,201.468307 446.305634,204.969864 
	C447.579102,205.721817 448.684113,206.759048 450.103577,207.955688 
z"/>
<path fill="#FBFBFB" opacity="1.000000" stroke="none" 
	d="
M584.582581,266.588165 
	C585.388489,272.154144 582.461914,275.293396 578.159668,276.925751 
	C566.690308,281.277466 555.045288,281.263123 543.549133,276.970154 
	C539.830017,275.581360 536.925415,273.027100 536.879944,268.530640 
	C536.834656,264.052551 539.589294,261.379761 543.339050,259.957031 
	C554.987610,255.537369 566.806641,255.438522 578.356628,260.108368 
	C580.814392,261.102081 582.448792,264.132263 584.582581,266.588165 
z"/>
<path fill="#FBFBFB" opacity="1.000000" stroke="none" 
	d="
M633.574951,254.631042 
	C627.696655,249.270859 625.931885,242.899124 628.286194,236.418106 
	C630.290405,230.900726 635.524414,227.191956 641.712280,226.904465 
	C648.703918,226.579605 654.428955,229.537354 656.874268,235.239258 
	C659.412598,241.158264 659.052307,246.990891 654.849792,252.147278 
	C651.014282,256.853363 643.704834,258.650330 637.475891,256.567291 
	C636.226807,256.149597 635.077148,255.434799 633.574951,254.631042 
z"/>
</svg>