<svg version="1.1" id="Layer_1" xmlns="http://www.w3.org/2000/svg" xmlns:xlink="http://www.w3.org/1999/xlink" x="0px" y="0px"
	 width="100%" viewBox="0 0 1080 1080" enable-background="new 0 0 1080 1080" xml:space="preserve">
<path fill="none" opacity="1.000000" stroke="none" 
	d="
M600.000000,1081.000000 
	C400.023010,1081.000000 200.546036,1081.000000 1.034532,1081.000000 
	C1.034532,721.064575 1.034532,361.129120 1.034532,1.096845 
	C360.893860,1.096845 720.787720,1.096845 1080.840820,1.096845 
	C1080.840820,360.999939 1080.840820,720.999939 1080.840820,1081.000000 
	C920.795349,1081.000000 760.647644,1081.000000 600.000000,1081.000000 
M448.219330,522.223511 
	C423.669403,511.297272 398.035614,504.219849 371.250153,502.228699 
	C315.177551,498.060455 263.443268,511.068024 217.051636,543.278564 
	C167.027405,578.011292 134.996307,625.368347 121.131203,684.514282 
	C110.536026,729.711243 113.489281,774.450256 129.450058,818.202087 
	C143.139252,855.726990 164.735306,887.982727 194.921982,914.075256 
	C250.902008,962.462769 315.909180,981.374268 388.941711,969.934143 
	C452.691742,959.948120 503.994354,927.968140 541.841736,875.924133 
	C580.048279,823.386353 593.700806,764.226013 583.945312,699.940857 
	C578.246033,662.384583 563.691650,628.306824 541.268799,597.722839 
	C517.049500,564.688416 486.097870,539.737671 448.219330,522.223511 
M371.857849,398.716980 
	C406.799622,460.508667 459.465576,493.629181 530.651672,495.968628 
	C556.120850,496.805634 581.638855,496.156250 607.134583,496.184845 
	C608.918945,496.186829 610.703308,496.185089 613.090149,496.185089 
	C608.075867,509.963013 603.330872,523.051575 598.549866,536.127014 
	C589.714233,560.290833 580.874756,584.453308 571.987183,608.598083 
	C570.920776,611.495300 570.139648,614.612732 573.879150,615.470642 
	C575.538513,615.851379 578.162903,614.069946 579.709961,612.598022 
	C619.303406,574.926025 658.839783,537.193726 698.273865,499.355011 
	C700.916443,496.819397 703.504456,495.931885 707.060791,495.943909 
	C740.888550,496.058289 774.716919,496.004333 808.545105,496.014557 
	C837.489136,496.023285 865.302063,490.260193 890.752930,476.556519 
	C955.527771,441.679413 989.801392,387.392395 991.710938,313.446228 
	C993.059143,261.238831 975.523560,216.044601 939.025146,178.820328 
	C902.720520,141.793701 857.914917,124.185425 806.165833,124.159981 
	C717.512695,124.116386 628.859436,124.090225 540.206482,124.226830 
	C530.076965,124.242439 519.857239,124.677879 509.835999,126.056847 
	C458.302582,133.148071 417.165405,157.973862 385.757843,199.371613 
	C343.721130,254.779495 340.142365,339.679932 371.857849,398.716980 
z"/>
<path fill="#DE2910" opacity="1.000000" stroke="none" 
	d="
M448.549652,522.406494 
	C486.097870,539.737671 517.049500,564.688416 541.268799,597.722839 
	C563.691650,628.306824 578.246033,662.384583 583.945312,699.940857 
	C593.700806,764.226013 580.048279,823.386353 541.841736,875.924133 
	C503.994354,927.968140 452.691742,959.948120 388.941711,969.934143 
	C315.909180,981.374268 250.902008,962.462769 194.921982,914.075256 
	C164.735306,887.982727 143.139252,855.726990 129.450058,818.202087 
	C113.489281,774.450256 110.536026,729.711243 121.131203,684.514282 
	C134.996307,625.368347 167.027405,578.011292 217.051636,543.278564 
	C263.443268,511.068024 315.177551,498.060455 371.250153,502.228699 
	C398.035614,504.219849 423.669403,511.297272 448.549652,522.406494 
M261.026825,679.472229 
	C259.187469,676.216064 260.331696,674.154358 263.274536,672.083557 
	C273.622437,664.801941 283.800873,657.279114 294.020050,649.815552 
	C295.090027,649.034119 296.003479,648.038208 298.048370,646.179199 
	C282.887634,646.179199 269.270599,645.991943 255.664139,646.289673 
	C251.401077,646.382874 249.613708,645.024902 248.391937,640.977539 
	C244.433670,627.864929 240.029083,614.887024 235.413971,600.679993 
	C234.281662,603.912964 233.535233,605.915039 232.876709,607.945740 
	C229.180405,619.343811 225.413040,630.720276 221.884796,642.170349 
	C220.949005,645.207275 219.535507,646.317749 216.276047,646.260193 
	C204.615128,646.053955 192.948364,646.179260 181.283798,646.179138 
	C178.715393,646.179138 176.146988,646.179138 173.578583,646.179138 
	C174.834229,648.468994 176.359024,649.649963 177.918884,650.782593 
	C187.752655,657.922913 197.545624,665.121216 207.466339,672.138794 
	C210.043198,673.961609 210.826370,675.794128 209.787872,678.848450 
	C206.520157,688.459290 203.437927,698.133728 200.342758,707.802368 
	C199.124298,711.608643 198.061356,715.464722 196.518951,720.679810 
	C208.416641,712.041565 219.227386,704.562622 229.581055,696.497070 
	C233.847153,693.173645 237.153030,692.489136 240.959564,696.517883 
	C241.412933,696.997681 241.971817,697.385376 242.510803,697.775635 
	C252.725693,705.172791 262.945007,712.563843 273.163361,719.956177 
	C273.450134,719.781555 273.736877,719.606934 274.023621,719.432251 
	C269.762787,706.367493 265.501953,693.302673 261.026825,679.472229 
M381.847534,632.827332 
	C383.936005,638.748291 382.113159,642.483521 375.897736,644.197266 
	C373.743561,644.791260 371.830139,646.258484 368.888977,647.811462 
	C373.572266,648.637268 377.379608,648.962158 380.931000,650.091797 
	C382.529968,650.600342 384.305756,652.509216 384.794617,654.143555 
	C385.803711,657.517212 386.003021,661.132996 386.535461,664.649170 
	C389.057983,662.071472 390.756744,659.439026 391.975464,656.600464 
	C393.416351,653.244446 395.630310,652.276245 399.081146,653.067810 
	C402.347717,653.817139 405.685699,654.255249 408.992279,654.830200 
	C409.382874,654.295410 409.773499,653.760620 410.164093,653.225830 
	C408.291718,651.860657 406.170013,650.734497 404.591217,649.087830 
	C398.607605,642.847229 398.426147,644.668762 402.673798,636.634521 
	C403.730042,634.636597 404.703430,632.594849 406.442505,629.119080 
	C402.467377,631.062683 399.684113,632.085022 397.278015,633.677246 
	C393.419037,636.231079 390.664124,635.374451 387.942902,631.915039 
	C386.207794,629.709290 383.909546,627.946472 380.822693,624.986877 
	C381.240173,628.421143 381.458588,630.217834 381.847534,632.827332 
M343.561432,591.689087 
	C339.579468,590.012756 335.597473,588.336426 331.615509,586.660095 
	C332.577087,590.494019 333.920746,593.376221 335.763428,595.893066 
	C337.725128,598.572327 337.390137,600.616394 335.234802,602.902527 
	C332.809113,605.475586 330.597198,608.250122 327.613861,611.727905 
	C331.858246,610.865540 335.061859,610.606079 337.964142,609.532288 
	C342.195404,607.966797 344.421814,609.554626 346.187836,613.235413 
	C347.436218,615.837280 349.152863,618.214539 351.345001,621.816956 
	C351.920929,617.009460 352.634552,613.620361 352.646545,610.228760 
	C352.658478,606.853271 354.184875,605.560120 357.246368,605.013611 
	C360.596100,604.415710 363.881989,603.459778 368.412476,602.366150 
	C364.214355,600.495972 361.185181,598.798767 357.941589,597.792847 
	C354.194946,596.630859 353.655518,594.407959 354.282990,590.975647 
	C354.829712,587.985291 354.810669,584.891418 355.102570,581.039001 
	C351.008911,585.091980 347.642944,588.424438 343.561432,591.689087 
M330.834320,767.097046 
	C333.724457,766.356140 336.709686,765.864136 339.478790,764.806335 
	C342.425476,763.680786 343.961731,764.510681 345.413147,767.177124 
	C347.029724,770.147278 349.191650,772.820496 351.915619,776.787109 
	C352.295166,771.891479 352.789459,768.470337 352.753448,765.054810 
	C352.724060,762.268921 353.611511,760.792786 356.401550,760.171631 
	C359.893982,759.393921 363.310913,758.277039 366.760437,757.306580 
	C363.705048,755.087158 360.596649,753.744690 357.390625,752.702332 
	C354.596802,751.794006 353.432373,750.253601 353.686096,747.207275 
	C353.977997,743.702881 353.753845,740.155457 353.753845,735.412415 
	C350.993744,738.805481 348.856079,741.104858 347.106750,743.669067 
	C345.026367,746.718506 342.870697,747.794739 339.290833,745.868530 
	C336.615845,744.429138 333.538879,743.736938 329.317352,742.243896 
	C330.900665,744.878479 331.670654,746.260376 332.534637,747.580811 
	C337.767517,755.578247 337.728088,755.535767 331.720917,762.943970 
	C330.822906,764.051392 330.598938,765.705505 330.834320,767.097046 
M399.455597,715.271912 
	C399.987579,714.214050 400.270905,712.872253 401.096313,712.149414 
	C404.043152,709.568787 407.174133,707.198425 411.003448,704.133911 
	C406.464630,704.133911 402.880249,703.940735 399.327637,704.193726 
	C396.372467,704.404114 394.743622,703.534363 393.927338,700.537354 
	C392.992737,697.106201 391.561768,693.810120 389.825562,689.017395 
	C388.345764,694.102295 387.070190,697.653015 386.324493,701.311829 
	C385.730957,704.224182 384.241272,705.102478 381.484100,704.986755 
	C377.940338,704.838135 374.385620,704.950684 370.835602,704.950684 
	C373.436981,708.123962 376.182678,710.217529 379.138855,711.952454 
	C381.724396,713.469849 382.476624,715.143555 381.430634,718.089722 
	C380.277130,721.338806 379.715759,724.798035 378.587891,729.434204 
	C383.454926,725.747925 387.132599,722.962463 390.872742,720.129700 
	C395.036255,722.803711 399.058350,725.386902 404.241028,728.715515 
	C402.381897,723.433533 401.065918,719.694702 399.455597,715.271912 
z"/>
<path fill="#060606" opacity="1.000000" stroke="none" 
	d="
M371.667297,398.399292 
	C340.142365,339.679932 343.721130,254.779495 385.757843,199.371613 
	C417.165405,157.973862 458.302582,133.148071 509.835999,126.056847 
	C519.857239,124.677879 530.076965,124.242439 540.206482,124.226830 
	C628.859436,124.090225 717.512695,124.116386 806.165833,124.159981 
	C857.914917,124.185425 902.720520,141.793701 939.025146,178.820328 
	C975.523560,216.044601 993.059143,261.238831 991.710938,313.446228 
	C989.801392,387.392395 955.527771,441.679413 890.752930,476.556519 
	C865.302063,490.260193 837.489136,496.023285 808.545105,496.014557 
	C774.716919,496.004333 740.888550,496.058289 707.060791,495.943909 
	C703.504456,495.931885 700.916443,496.819397 698.273865,499.355011 
	C658.839783,537.193726 619.303406,574.926025 579.709961,612.598022 
	C578.162903,614.069946 575.538513,615.851379 573.879150,615.470642 
	C570.139648,614.612732 570.920776,611.495300 571.987183,608.598083 
	C580.874756,584.453308 589.714233,560.290833 598.549866,536.127014 
	C603.330872,523.051575 608.075867,509.963013 613.090149,496.185089 
	C610.703308,496.185089 608.918945,496.186829 607.134583,496.184845 
	C581.638855,496.156250 556.120850,496.805634 530.651672,495.968628 
	C459.465576,493.629181 406.799622,460.508667 371.667297,398.399292 
M483.140869,481.452515 
	C500.755554,486.913483 518.904236,488.640625 537.213501,488.770294 
	C563.377930,488.955597 589.544556,488.814331 615.710266,488.819916 
	C622.655640,488.821381 623.551819,490.114044 621.088257,496.854095 
	C611.223511,523.843567 601.316040,550.817444 591.444031,577.804321 
	C589.157715,584.054443 586.949219,590.333069 584.704895,596.598572 
	C586.041626,596.414856 586.645325,595.875061 587.231262,595.316528 
	C623.294373,560.938416 659.381042,526.584900 695.362976,492.121979 
	C697.828125,489.760956 700.186035,488.728210 703.618469,488.741394 
	C736.616760,488.868408 769.618469,489.064270 802.612976,488.688019 
	C814.704224,488.550171 826.921997,487.804840 838.835083,485.839600 
	C882.416382,478.650055 918.069702,457.329865 945.706177,423.026611 
	C971.364685,391.178680 984.039673,354.538269 984.336914,313.581970 
	C984.493469,292.014099 982.045044,270.946503 974.919556,250.435089 
	C950.244263,179.405258 882.852600,131.128326 806.695435,131.815201 
	C714.872986,132.643341 623.037354,131.977936 531.207458,132.032013 
	C504.387115,132.047806 478.835785,138.169891 455.121552,150.481216 
	C382.127075,188.376572 349.386047,260.412628 360.350250,339.281494 
	C365.046234,373.061035 379.062317,402.974335 401.624207,428.696106 
	C423.606598,453.757233 450.409973,471.453430 483.140869,481.452515 
z"/>
<path fill="#FEDA00" opacity="1.000000" stroke="none" 
	d="
M261.133972,679.855103 
	C265.501953,693.302673 269.762787,706.367493 274.023621,719.432251 
	C273.736877,719.606934 273.450134,719.781555 273.163361,719.956177 
	C262.945007,712.563843 252.725693,705.172791 242.510803,697.775635 
	C241.971817,697.385376 241.412933,696.997681 240.959564,696.517883 
	C237.153030,692.489136 233.847153,693.173645 229.581055,696.497070 
	C219.227386,704.562622 208.416641,712.041565 196.518951,720.679810 
	C198.061356,715.464722 199.124298,711.608643 200.342758,707.802368 
	C203.437927,698.133728 206.520157,688.459290 209.787872,678.848450 
	C210.826370,675.794128 210.043198,673.961609 207.466339,672.138794 
	C197.545624,665.121216 187.752655,657.922913 177.918884,650.782593 
	C176.359024,649.649963 174.834229,648.468994 173.578583,646.179138 
	C176.146988,646.179138 178.715393,646.179138 181.283798,646.179138 
	C192.948364,646.179260 204.615128,646.053955 216.276047,646.260193 
	C219.535507,646.317749 220.949005,645.207275 221.884796,642.170349 
	C225.413040,630.720276 229.180405,619.343811 232.876709,607.945740 
	C233.535233,605.915039 234.281662,603.912964 235.413971,600.679993 
	C240.029083,614.887024 244.433670,627.864929 248.391937,640.977539 
	C249.613708,645.024902 251.401077,646.382874 255.664139,646.289673 
	C269.270599,645.991943 282.887634,646.179199 298.048370,646.179199 
	C296.003479,648.038208 295.090027,649.034119 294.020050,649.815552 
	C283.800873,657.279114 273.622437,664.801941 263.274536,672.083557 
	C260.331696,674.154358 259.187469,676.216064 261.133972,679.855103 
z"/>
<path fill="#FDD501" opacity="1.000000" stroke="none" 
	d="
M381.762268,632.420959 
	C381.458588,630.217834 381.240173,628.421143 380.822693,624.986877 
	C383.909546,627.946472 386.207794,629.709290 387.942902,631.915039 
	C390.664124,635.374451 393.419037,636.231079 397.278015,633.677246 
	C399.684113,632.085022 402.467377,631.062683 406.442505,629.119080 
	C404.703430,632.594849 403.730042,634.636597 402.673798,636.634521 
	C398.426147,644.668762 398.607605,642.847229 404.591217,649.087830 
	C406.170013,650.734497 408.291718,651.860657 410.164093,653.225830 
	C409.773499,653.760620 409.382874,654.295410 408.992279,654.830200 
	C405.685699,654.255249 402.347717,653.817139 399.081146,653.067810 
	C395.630310,652.276245 393.416351,653.244446 391.975464,656.600464 
	C390.756744,659.439026 389.057983,662.071472 386.535461,664.649170 
	C386.003021,661.132996 385.803711,657.517212 384.794617,654.143555 
	C384.305756,652.509216 382.529968,650.600342 380.931000,650.091797 
	C377.379608,648.962158 373.572266,648.637268 368.888977,647.811462 
	C371.830139,646.258484 373.743561,644.791260 375.897736,644.197266 
	C382.113159,642.483521 383.936005,638.748291 381.762268,632.420959 
z"/>
<path fill="#FDD601" opacity="1.000000" stroke="none" 
	d="
M343.919189,591.723022 
	C347.642944,588.424438 351.008911,585.091980 355.102570,581.039001 
	C354.810669,584.891418 354.829712,587.985291 354.282990,590.975647 
	C353.655518,594.407959 354.194946,596.630859 357.941589,597.792847 
	C361.185181,598.798767 364.214355,600.495972 368.412476,602.366150 
	C363.881989,603.459778 360.596100,604.415710 357.246368,605.013611 
	C354.184875,605.560120 352.658478,606.853271 352.646545,610.228760 
	C352.634552,613.620361 351.920929,617.009460 351.345001,621.816956 
	C349.152863,618.214539 347.436218,615.837280 346.187836,613.235413 
	C344.421814,609.554626 342.195404,607.966797 337.964142,609.532288 
	C335.061859,610.606079 331.858246,610.865540 327.613861,611.727905 
	C330.597198,608.250122 332.809113,605.475586 335.234802,602.902527 
	C337.390137,600.616394 337.725128,598.572327 335.763428,595.893066 
	C333.920746,593.376221 332.577087,590.494019 331.615509,586.660095 
	C335.597473,588.336426 339.579468,590.012756 343.919189,591.723022 
z"/>
<path fill="#FDD601" opacity="1.000000" stroke="none" 
	d="
M330.448730,767.101868 
	C330.598938,765.705505 330.822906,764.051392 331.720917,762.943970 
	C337.728088,755.535767 337.767517,755.578247 332.534637,747.580811 
	C331.670654,746.260376 330.900665,744.878479 329.317352,742.243896 
	C333.538879,743.736938 336.615845,744.429138 339.290833,745.868530 
	C342.870697,747.794739 345.026367,746.718506 347.106750,743.669067 
	C348.856079,741.104858 350.993744,738.805481 353.753845,735.412415 
	C353.753845,740.155457 353.977997,743.702881 353.686096,747.207275 
	C353.432373,750.253601 354.596802,751.794006 357.390625,752.702332 
	C360.596649,753.744690 363.705048,755.087158 366.760437,757.306580 
	C363.310913,758.277039 359.893982,759.393921 356.401550,760.171631 
	C353.611511,760.792786 352.724060,762.268921 352.753448,765.054810 
	C352.789459,768.470337 352.295166,771.891479 351.915619,776.787109 
	C349.191650,772.820496 347.029724,770.147278 345.413147,767.177124 
	C343.961731,764.510681 342.425476,763.680786 339.478790,764.806335 
	C336.709686,765.864136 333.724457,766.356140 330.448730,767.101868 
z"/>
<path fill="#FDD501" opacity="1.000000" stroke="none" 
	d="
M399.602753,715.613892 
	C401.065918,719.694702 402.381897,723.433533 404.241028,728.715515 
	C399.058350,725.386902 395.036255,722.803711 390.872742,720.129700 
	C387.132599,722.962463 383.454926,725.747925 378.587891,729.434204 
	C379.715759,724.798035 380.277130,721.338806 381.430634,718.089722 
	C382.476624,715.143555 381.724396,713.469849 379.138855,711.952454 
	C376.182678,710.217529 373.436981,708.123962 370.835602,704.950684 
	C374.385620,704.950684 377.940338,704.838135 381.484100,704.986755 
	C384.241272,705.102478 385.730957,704.224182 386.324493,701.311829 
	C387.070190,697.653015 388.345764,694.102295 389.825562,689.017395 
	C391.561768,693.810120 392.992737,697.106201 393.927338,700.537354 
	C394.743622,703.534363 396.372467,704.404114 399.327637,704.193726 
	C402.880249,703.940735 406.464630,704.133911 411.003448,704.133911 
	C407.174133,707.198425 404.043152,709.568787 401.096313,712.149414 
	C400.270905,712.872253 399.987579,714.214050 399.602753,715.613892 
z"/>
<path fill="#FEFEFE" opacity="1.000000" stroke="none" 
	d="
M482.773224,481.284180 
	C450.409973,471.453430 423.606598,453.757233 401.624207,428.696106 
	C379.062317,402.974335 365.046234,373.061035 360.350250,339.281494 
	C349.386047,260.412628 382.127075,188.376572 455.121552,150.481216 
	C478.835785,138.169891 504.387115,132.047806 531.207458,132.032013 
	C623.037354,131.977936 714.872986,132.643341 806.695435,131.815201 
	C882.852600,131.128326 950.244263,179.405258 974.919556,250.435089 
	C982.045044,270.946503 984.493469,292.014099 984.336914,313.581970 
	C984.039673,354.538269 971.364685,391.178680 945.706177,423.026611 
	C918.069702,457.329865 882.416382,478.650055 838.835083,485.839600 
	C826.921997,487.804840 814.704224,488.550171 802.612976,488.688019 
	C769.618469,489.064270 736.616760,488.868408 703.618469,488.741394 
	C700.186035,488.728210 697.828125,489.760956 695.362976,492.121979 
	C659.381042,526.584900 623.294373,560.938416 587.231262,595.316528 
	C586.645325,595.875061 586.041626,596.414856 584.704895,596.598572 
	C586.949219,590.333069 589.157715,584.054443 591.444031,577.804321 
	C601.316040,550.817444 611.223511,523.843567 621.088257,496.854095 
	C623.551819,490.114044 622.655640,488.821381 615.710266,488.819916 
	C589.544556,488.814331 563.377930,488.955597 537.213501,488.770294 
	C518.904236,488.640625 500.755554,486.913483 482.773224,481.284180 
M791.895508,276.166504 
	C783.989380,275.282562 781.451233,276.881714 779.024658,284.835938 
	C779.422852,288.114380 779.453613,291.496826 780.342102,294.636536 
	C780.987671,296.917908 782.767578,298.878296 783.305420,300.919189 
	C779.290100,299.705444 776.038574,301.039703 773.688965,304.264740 
	C771.188110,307.697449 772.025696,311.181458 774.283691,314.454102 
	C782.694519,326.644287 791.141602,338.809540 799.516541,351.024323 
	C804.742615,358.646637 809.863770,366.340912 814.215393,373.935730 
	C810.966064,373.379669 807.635864,373.109619 804.481323,372.218079 
	C790.675659,368.316406 780.760254,356.120819 778.828430,341.588348 
	C778.574707,339.679901 776.388062,336.676392 774.914917,336.564087 
	C771.866028,336.331665 770.871155,338.925018 770.897400,342.098175 
	C771.077942,363.964569 787.698730,380.968628 809.198181,381.085938 
	C815.112732,381.118225 816.207642,379.774567 815.700928,373.870300 
	C816.363098,374.362091 817.070618,374.803497 817.680847,375.352936 
	C833.150269,389.281006 853.813293,392.173859 872.322815,382.988556 
	C892.323303,373.063385 903.280396,351.770844 898.725891,330.051727 
	C897.283264,323.172516 893.608398,316.780975 891.180237,310.084595 
	C886.766357,297.911560 882.606018,285.646393 878.163879,273.483948 
	C876.386597,268.617828 872.518677,266.378754 868.638000,267.406586 
	C864.006714,268.633240 861.763306,272.553223 862.765686,277.893463 
	C864.356812,286.369751 865.958191,294.845215 867.691162,303.293121 
	C868.282837,306.177612 868.291809,308.594055 864.841736,309.336029 
	C864.215271,308.545929 863.588867,307.755829 862.798767,306.302917 
	C853.987061,293.469238 845.172607,280.637451 836.364929,267.801056 
	C832.990234,262.882690 829.798462,257.828125 826.221619,253.062057 
	C821.862732,247.253983 815.221863,247.964325 811.838806,254.403381 
	C811.227112,255.567612 810.780945,256.818756 810.022583,258.883026 
	C810.021423,260.928528 810.020264,262.974060 809.453613,264.656067 
	C808.678345,263.601196 808.114746,262.214844 807.085510,261.557770 
	C804.641113,259.997192 801.961243,257.655762 799.403870,257.689728 
	C795.508423,257.741486 792.475647,260.382416 791.307373,265.244659 
	C788.423035,269.419067 790.470032,272.911102 791.895508,276.166504 
M635.208557,278.049835 
	C627.913940,278.049835 620.619324,278.049835 613.148010,278.049835 
	C614.793884,268.333649 616.389282,258.915466 618.044800,249.142593 
	C614.119080,248.909607 610.718018,248.707748 607.462463,248.514542 
	C605.763977,258.651001 604.150085,268.282745 602.472839,278.292725 
	C597.131409,278.292725 592.209717,278.292725 587.198242,278.292725 
	C587.198242,281.854279 587.198242,284.949066 587.198242,288.454559 
	C591.494080,288.454559 595.593628,288.454559 600.016541,288.454559 
	C599.924377,289.832275 600.004456,290.814301 599.776062,291.718414 
	C597.052612,302.502747 594.498535,313.337921 591.400208,324.014771 
	C590.418762,327.396790 591.099426,328.923950 593.845154,330.836578 
	C600.617004,335.553802 607.100403,340.685059 613.803040,345.727539 
	C606.417603,357.911652 596.959290,366.940063 585.067566,373.368835 
	C587.362671,376.310944 589.500305,379.051147 591.737793,381.919464 
	C604.410645,375.104919 614.046692,364.987488 622.264221,352.895752 
	C627.512451,358.385712 632.318054,363.412689 637.360291,368.687164 
	C639.757874,365.761810 642.026855,362.993286 645.224731,359.091400 
	C640.185120,354.497803 635.422913,349.889191 630.350464,345.651947 
	C627.982361,343.673737 627.751343,342.095764 628.995911,339.345581 
	C631.179077,334.521179 633.088501,329.533417 634.636719,324.468597 
	C639.108398,309.840210 641.611877,294.844574 642.764893,279.421265 
	C640.302673,278.889526 638.215759,278.438873 635.208557,278.049835 
M523.040955,338.500000 
	C523.040894,347.498352 522.731689,356.511536 523.161621,365.489288 
	C523.403259,370.534424 521.569946,371.904236 516.929993,371.479797 
	C513.379944,371.155060 509.776367,371.415222 505.813293,371.415222 
	C507.132782,375.264618 508.298553,378.665588 509.457550,382.046844 
	C512.743408,382.046844 515.907532,382.163696 519.060547,382.026093 
	C530.976318,381.506012 533.899414,378.402985 533.903870,366.381836 
	C533.912964,341.553070 533.906677,316.724304 533.906738,291.895538 
	C533.906738,290.164459 533.906738,288.433380 533.906738,286.938507 
	C543.443787,286.938507 552.198486,286.938507 561.244873,286.938507 
	C560.154785,293.839478 559.124878,300.359283 558.067749,307.051758 
	C561.154175,307.649445 563.894043,308.180023 567.268311,308.833435 
	C569.413452,298.423309 571.508484,288.256287 573.962341,276.347778 
	C550.538696,276.266907 528.057129,276.346558 505.255524,276.299744 
	C507.846436,267.682251 510.260132,259.654114 512.757080,251.349152 
	C508.785431,250.494385 505.453308,249.777267 502.004089,249.034943 
	C497.037933,269.168549 490.404053,288.167450 478.003418,304.806732 
	C481.002014,307.179108 483.707001,309.319214 487.206207,312.087677 
	C491.341583,304.484589 495.219421,297.182159 499.303864,289.997253 
	C500.083557,288.625763 501.634064,286.811615 502.905762,286.748444 
	C509.490784,286.421295 516.100769,286.596344 523.040955,286.596344 
	C523.040955,303.896942 523.040955,320.698456 523.040955,338.500000 
M669.500244,269.152832 
	C678.893250,269.152832 688.286255,269.152832 698.924438,269.152832 
	C694.502625,274.565491 691.473145,279.790253 687.082642,283.324158 
	C678.638000,290.121185 675.384155,298.347992 677.038269,308.826813 
	C677.078796,309.083038 676.802063,309.389343 676.438416,310.188232 
	C665.630066,310.188232 654.576660,310.188232 643.408691,310.188232 
	C643.408691,313.807159 643.408691,316.908447 643.408691,320.557739 
	C654.640747,320.557739 665.693787,320.557739 677.092102,320.557739 
	C677.092102,336.892548 677.055542,352.681244 677.124084,368.469452 
	C677.137268,371.494568 675.513489,372.067383 673.003174,372.041931 
	C667.282959,371.983978 661.561646,372.023621 655.357361,372.023621 
	C656.870361,375.844421 658.133484,379.034088 659.559753,382.635803 
	C666.088806,382.179688 672.606323,382.125732 678.988464,381.168823 
	C685.753540,380.154449 688.004333,377.132965 688.072571,370.245789 
	C688.184753,358.922577 688.119873,347.597626 688.127075,336.273407 
	C688.130371,331.155304 688.127686,326.037231 688.127686,320.511932 
	C699.102356,320.511932 709.528198,320.511932 720.163330,320.511932 
	C720.163330,316.841156 720.163330,313.596954 720.163330,309.820740 
	C709.346558,309.820740 698.797058,309.820740 688.634644,309.820740 
	C686.667114,300.819733 688.388245,293.718628 695.968933,288.507629 
	C698.511658,286.759705 700.455383,284.056152 702.444824,281.604248 
	C707.091980,275.876373 711.600891,270.036316 715.992798,264.461243 
	C711.983215,259.922485 707.848083,258.786774 702.614868,258.898132 
	C685.176270,259.269104 667.724976,259.038574 650.189453,259.038574 
	C650.189453,262.640717 650.189453,265.827576 650.189453,269.152832 
	C656.529663,269.152832 662.514954,269.152832 669.500244,269.152832 
M457.311707,378.188110 
	C457.836365,382.529572 459.031342,382.900543 467.907501,381.300507 
	C467.907501,379.575623 467.907501,377.771667 467.907501,375.967682 
	C467.907501,346.982330 467.811737,317.996277 468.029205,289.012573 
	C468.056274,285.406219 469.268738,281.600830 470.755951,278.253845 
	C474.625641,269.545197 478.953857,261.040283 483.283997,252.071213 
	C479.283051,250.848358 476.150543,249.890915 472.671692,248.827621 
	C464.139984,270.512054 452.794006,290.249298 436.614594,306.966034 
	C438.703247,310.560944 440.634918,313.885712 442.832458,317.668060 
	C447.682739,311.886658 452.188049,306.516418 457.311646,300.409271 
	C457.311646,326.686615 457.311646,351.967194 457.311707,378.188110 
M509.384277,315.155029 
	C508.935059,314.211670 508.659943,312.612030 508.006409,312.438629 
	C505.190338,311.691498 502.263336,311.362671 499.317169,310.871613 
	C495.220825,327.473785 489.753143,342.983032 479.410645,356.534363 
	C482.555756,358.551971 485.466980,360.419556 488.715942,362.503784 
	C498.727936,348.288086 504.817383,332.493744 509.384277,315.155029 
M569.202209,346.192078 
	C564.438782,333.928314 559.675293,321.664551 554.834778,309.202545 
	C550.557556,310.749390 547.689331,311.786652 545.515015,312.572998 
	C551.489197,329.252838 557.279236,345.418671 563.113037,361.706696 
	C565.766602,360.772797 568.976929,359.642944 572.475342,358.411713 
	C571.409790,354.308533 570.453735,350.626770 569.202209,346.192078 
M856.972351,256.745361 
	C858.372925,257.504700 859.700806,258.716156 861.185120,258.954956 
	C880.615417,262.081024 890.277710,271.855133 893.136597,290.971924 
	C893.393250,292.688019 895.789062,294.084259 897.191406,295.629059 
	C898.513977,294.033234 900.889221,292.506714 900.999573,290.831085 
	C902.400024,269.557068 882.819763,249.957458 861.474915,250.871063 
	C857.967224,251.021210 856.167908,252.374130 856.972351,256.745361 
M789.446594,381.046356 
	C778.497314,379.878052 772.043518,373.396881 770.989624,362.377960 
	C770.712402,359.479889 770.085205,356.861847 766.541870,356.992126 
	C762.721375,357.132599 762.895813,360.074371 762.949829,362.842621 
	C763.228394,377.126801 775.496094,389.322418 789.614868,388.959778 
	C791.453979,388.912567 794.384399,387.437256 794.830994,386.006073 
	C795.836304,382.784332 793.367676,381.310059 789.446594,381.046356 
M899.244873,262.548676 
	C899.839355,265.287415 900.031372,268.209167 901.165100,270.702728 
	C901.966248,272.464752 903.879150,274.584290 905.586731,274.883545 
	C908.716614,275.432068 908.998657,272.653564 909.043640,270.153961 
	C909.297913,256.019714 896.948303,243.235123 882.535339,243.195160 
	C880.675171,243.189987 877.533630,245.058319 877.208740,246.544662 
	C876.512268,249.731369 879.123779,250.898972 882.227295,251.080231 
	C889.770264,251.520752 895.439880,255.045670 899.244873,262.548676 
z"/>
<path fill="#FFDC5E" opacity="1.000000" stroke="none" 
	d="
M791.938110,264.814545 
	C792.475647,260.382416 795.508423,257.741486 799.403870,257.689728 
	C801.961243,257.655762 804.641113,259.997192 807.085510,261.557770 
	C808.114746,262.214844 808.678345,263.601196 810.017578,265.031433 
	C819.585754,278.889435 828.548828,292.400177 837.692200,305.787781 
	C838.264893,306.626221 840.248535,306.500977 841.575806,306.824066 
	C841.890930,306.364655 842.206116,305.905273 842.521240,305.445892 
	C831.766907,289.640503 821.012634,273.835144 810.258301,258.029755 
	C810.780945,256.818756 811.227112,255.567612 811.838806,254.403381 
	C815.221863,247.964325 821.862732,247.253983 826.221619,253.062057 
	C829.798462,257.828125 832.990234,262.882690 836.364929,267.801056 
	C845.172607,280.637451 853.987061,293.469238 862.571777,306.769257 
	C845.016785,318.078491 839.563721,345.676605 851.696472,361.911774 
	C852.860229,363.469055 855.161743,364.176086 856.935120,365.277802 
	C857.228333,364.830322 857.521606,364.382812 857.814880,363.935303 
	C857.209717,362.788879 856.667969,361.603424 855.989746,360.502045 
	C847.792236,347.191284 848.129578,331.340454 857.159424,318.802246 
	C859.473938,315.588562 862.439453,312.843872 865.105896,309.883698 
	C868.291809,308.594055 868.282837,306.177612 867.691162,303.293121 
	C865.958191,294.845215 864.356812,286.369751 862.765686,277.893463 
	C861.763306,272.553223 864.006714,268.633240 868.638000,267.406586 
	C872.518677,266.378754 876.386597,268.617828 878.163879,273.483948 
	C882.606018,285.646393 886.766357,297.911560 891.180237,310.084595 
	C893.608398,316.780975 897.283264,323.172516 898.725891,330.051727 
	C903.280396,351.770844 892.323303,373.063385 872.322815,382.988556 
	C853.813293,392.173859 833.150269,389.281006 817.680847,375.352936 
	C817.070618,374.803497 816.363098,374.362091 815.347900,373.937622 
	C814.994873,374.004974 815.032043,374.002869 815.032043,374.002869 
	C809.863770,366.340912 804.742615,358.646637 799.516541,351.024323 
	C791.141602,338.809540 782.694519,326.644287 774.283691,314.454102 
	C772.025696,311.181458 771.188110,307.697449 773.688965,304.264740 
	C776.038574,301.039703 779.290100,299.705444 783.980225,301.089966 
	C792.555420,312.387390 800.455933,323.514008 808.356384,334.640656 
	C808.867310,334.481995 809.378235,334.323364 809.889160,334.164734 
	C809.459290,332.210266 809.447449,330.022034 808.512329,328.350128 
	C806.580139,324.895294 804.130310,321.732544 801.938904,318.419556 
	C794.378296,306.989777 786.837219,295.547089 779.288757,284.109283 
	C781.451233,276.881714 783.989380,275.282562 792.568848,276.418091 
	C802.118347,289.695984 810.961426,302.745087 819.917725,315.716034 
	C820.892151,317.127197 822.520264,318.087036 823.845154,319.256226 
	C824.263855,318.844543 824.682495,318.432892 825.101196,318.021210 
	C824.640991,316.844299 824.380859,315.531921 823.689758,314.511322 
	C816.336487,303.652161 808.754211,292.944305 801.579895,281.969299 
	C797.998779,276.491058 795.129395,270.547577 791.938110,264.814545 
z"/>
<path fill="#060606" opacity="1.000000" stroke="none" 
	d="
M635.668701,278.019012 
	C638.215759,278.438873 640.302673,278.889526 642.764893,279.421265 
	C641.611877,294.844574 639.108398,309.840210 634.636719,324.468597 
	C633.088501,329.533417 631.179077,334.521179 628.995911,339.345581 
	C627.751343,342.095764 627.982361,343.673737 630.350464,345.651947 
	C635.422913,349.889191 640.185120,354.497803 645.224731,359.091400 
	C642.026855,362.993286 639.757874,365.761810 637.360291,368.687164 
	C632.318054,363.412689 627.512451,358.385712 622.264221,352.895752 
	C614.046692,364.987488 604.410645,375.104919 591.737793,381.919464 
	C589.500305,379.051147 587.362671,376.310944 585.067566,373.368835 
	C596.959290,366.940063 606.417603,357.911652 613.803040,345.727539 
	C607.100403,340.685059 600.617004,335.553802 593.845154,330.836578 
	C591.099426,328.923950 590.418762,327.396790 591.400208,324.014771 
	C594.498535,313.337921 597.052612,302.502747 599.776062,291.718414 
	C600.004456,290.814301 599.924377,289.832275 600.016541,288.454559 
	C595.593628,288.454559 591.494080,288.454559 587.198242,288.454559 
	C587.198242,284.949066 587.198242,281.854279 587.198242,278.292725 
	C592.209717,278.292725 597.131409,278.292725 602.472839,278.292725 
	C604.150085,268.282745 605.763977,258.651001 607.462463,248.514542 
	C610.718018,248.707748 614.119080,248.909607 618.044800,249.142593 
	C616.389282,258.915466 614.793884,268.333649 613.148010,278.049835 
	C620.619324,278.049835 627.913940,278.049835 635.668701,278.019012 
M621.540527,330.079803 
	C626.618835,316.752625 630.069824,303.061707 631.330322,288.570953 
	C624.329285,288.570953 617.879639,288.570953 611.130981,288.570953 
	C608.211914,300.341034 605.281433,312.157349 602.363586,323.922516 
	C607.922241,327.926575 613.274170,331.781677 618.976807,335.889435 
	C619.763733,334.075623 620.477478,332.430664 621.540527,330.079803 
z"/>
<path fill="#0A0A0A" opacity="1.000000" stroke="none" 
	d="
M523.040955,338.000000 
	C523.040955,320.698456 523.040955,303.896942 523.040955,286.596344 
	C516.100769,286.596344 509.490784,286.421295 502.905762,286.748444 
	C501.634064,286.811615 500.083557,288.625763 499.303864,289.997253 
	C495.219421,297.182159 491.341583,304.484589 487.206207,312.087677 
	C483.707001,309.319214 481.002014,307.179108 478.003418,304.806732 
	C490.404053,288.167450 497.037933,269.168549 502.004089,249.034943 
	C505.453308,249.777267 508.785431,250.494385 512.757080,251.349152 
	C510.260132,259.654114 507.846436,267.682251 505.255524,276.299744 
	C528.057129,276.346558 550.538696,276.266907 573.962341,276.347778 
	C571.508484,288.256287 569.413452,298.423309 567.268311,308.833435 
	C563.894043,308.180023 561.154175,307.649445 558.067749,307.051758 
	C559.124878,300.359283 560.154785,293.839478 561.244873,286.938507 
	C552.198486,286.938507 543.443787,286.938507 533.906738,286.938507 
	C533.906738,288.433380 533.906738,290.164459 533.906738,291.895538 
	C533.906677,316.724304 533.912964,341.553070 533.903870,366.381836 
	C533.899414,378.402985 530.976318,381.506012 519.060547,382.026093 
	C515.907532,382.163696 512.743408,382.046844 509.457550,382.046844 
	C508.298553,378.665588 507.132782,375.264618 505.813293,371.415222 
	C509.776367,371.415222 513.379944,371.155060 516.929993,371.479797 
	C521.569946,371.904236 523.403259,370.534424 523.161621,365.489288 
	C522.731689,356.511536 523.040894,347.498352 523.040955,338.000000 
z"/>
<path fill="#070707" opacity="1.000000" stroke="none" 
	d="
M669.000244,269.152832 
	C662.514954,269.152832 656.529663,269.152832 650.189453,269.152832 
	C650.189453,265.827576 650.189453,262.640717 650.189453,259.038574 
	C667.724976,259.038574 685.176270,259.269104 702.614868,258.898132 
	C707.848083,258.786774 711.983215,259.922485 715.992798,264.461243 
	C711.600891,270.036316 707.091980,275.876373 702.444824,281.604248 
	C700.455383,284.056152 698.511658,286.759705 695.968933,288.507629 
	C688.388245,293.718628 686.667114,300.819733 688.634644,309.820740 
	C698.797058,309.820740 709.346558,309.820740 720.163330,309.820740 
	C720.163330,313.596954 720.163330,316.841156 720.163330,320.511932 
	C709.528198,320.511932 699.102356,320.511932 688.127686,320.511932 
	C688.127686,326.037231 688.130371,331.155304 688.127075,336.273407 
	C688.119873,347.597626 688.184753,358.922577 688.072571,370.245789 
	C688.004333,377.132965 685.753540,380.154449 678.988464,381.168823 
	C672.606323,382.125732 666.088806,382.179688 659.559753,382.635803 
	C658.133484,379.034088 656.870361,375.844421 655.357361,372.023621 
	C661.561646,372.023621 667.282959,371.983978 673.003174,372.041931 
	C675.513489,372.067383 677.137268,371.494568 677.124084,368.469452 
	C677.055542,352.681244 677.092102,336.892548 677.092102,320.557739 
	C665.693787,320.557739 654.640747,320.557739 643.408691,320.557739 
	C643.408691,316.908447 643.408691,313.807159 643.408691,310.188232 
	C654.576660,310.188232 665.630066,310.188232 676.438416,310.188232 
	C676.802063,309.389343 677.078796,309.083038 677.038269,308.826813 
	C675.384155,298.347992 678.638000,290.121185 687.082642,283.324158 
	C691.473145,279.790253 694.502625,274.565491 698.924438,269.152832 
	C688.286255,269.152832 678.893250,269.152832 669.000244,269.152832 
z"/>
<path fill="#0A0A0A" opacity="1.000000" stroke="none" 
	d="
M457.311676,377.717926 
	C457.311646,351.967194 457.311646,326.686615 457.311646,300.409271 
	C452.188049,306.516418 447.682739,311.886658 442.832458,317.668060 
	C440.634918,313.885712 438.703247,310.560944 436.614594,306.966034 
	C452.794006,290.249298 464.139984,270.512054 472.671692,248.827621 
	C476.150543,249.890915 479.283051,250.848358 483.283997,252.071213 
	C478.953857,261.040283 474.625641,269.545197 470.755951,278.253845 
	C469.268738,281.600830 468.056274,285.406219 468.029205,289.012573 
	C467.811737,317.996277 467.907501,346.982330 467.907501,375.967682 
	C467.907501,377.771667 467.907501,379.575623 467.907501,381.300507 
	C459.031342,382.900543 457.836365,382.529572 457.311676,377.717926 
z"/>
<path fill="#060606" opacity="1.000000" stroke="none" 
	d="
M509.272491,315.536255 
	C504.817383,332.493744 498.727936,348.288086 488.715942,362.503784 
	C485.466980,360.419556 482.555756,358.551971 479.410645,356.534363 
	C489.753143,342.983032 495.220825,327.473785 499.317169,310.871613 
	C502.263336,311.362671 505.190338,311.691498 508.006409,312.438629 
	C508.659943,312.612030 508.935059,314.211670 509.272491,315.536255 
z"/>
<path fill="#070707" opacity="1.000000" stroke="none" 
	d="
M569.349915,346.568542 
	C570.453735,350.626770 571.409790,354.308533 572.475342,358.411713 
	C568.976929,359.642944 565.766602,360.772797 563.113037,361.706696 
	C557.279236,345.418671 551.489197,329.252838 545.515015,312.572998 
	C547.689331,311.786652 550.557556,310.749390 554.834778,309.202545 
	C559.675293,321.664551 564.438782,333.928314 569.349915,346.568542 
z"/>
<path fill="#62AFED" opacity="1.000000" stroke="none" 
	d="
M814.996582,373.986450 
	C816.207642,379.774567 815.112732,381.118225 809.198181,381.085938 
	C787.698730,380.968628 771.077942,363.964569 770.897400,342.098175 
	C770.871155,338.925018 771.866028,336.331665 774.914917,336.564087 
	C776.388062,336.676392 778.574707,339.679901 778.828430,341.588348 
	C780.760254,356.120819 790.675659,368.316406 804.481323,372.218079 
	C807.635864,373.109619 810.966064,373.379669 814.623718,373.969299 
	C815.032043,374.002869 814.994873,374.004974 814.996582,373.986450 
z"/>
<path fill="#62AFED" opacity="1.000000" stroke="none" 
	d="
M856.823425,256.400330 
	C856.167908,252.374130 857.967224,251.021210 861.474915,250.871063 
	C882.819763,249.957458 902.400024,269.557068 900.999573,290.831085 
	C900.889221,292.506714 898.513977,294.033234 897.191406,295.629059 
	C895.789062,294.084259 893.393250,292.688019 893.136597,290.971924 
	C890.277710,271.855133 880.615417,262.081024 861.185120,258.954956 
	C859.700806,258.716156 858.372925,257.504700 856.823425,256.400330 
z"/>
<path fill="#62B0ED" opacity="1.000000" stroke="none" 
	d="
M789.861206,381.059235 
	C793.367676,381.310059 795.836304,382.784332 794.830994,386.006073 
	C794.384399,387.437256 791.453979,388.912567 789.614868,388.959778 
	C775.496094,389.322418 763.228394,377.126801 762.949829,362.842621 
	C762.895813,360.074371 762.721375,357.132599 766.541870,356.992126 
	C770.085205,356.861847 770.712402,359.479889 770.989624,362.377960 
	C772.043518,373.396881 778.497314,379.878052 789.861206,381.059235 
z"/>
<path fill="#61AFEC" opacity="1.000000" stroke="none" 
	d="
M899.098145,262.193787 
	C895.439880,255.045670 889.770264,251.520752 882.227295,251.080231 
	C879.123779,250.898972 876.512268,249.731369 877.208740,246.544662 
	C877.533630,245.058319 880.675171,243.189987 882.535339,243.195160 
	C896.948303,243.235123 909.297913,256.019714 909.043640,270.153961 
	C908.998657,272.653564 908.716614,275.432068 905.586731,274.883545 
	C903.879150,274.584290 901.966248,272.464752 901.165100,270.702728 
	C900.031372,268.209167 899.839355,265.287415 899.098145,262.193787 
z"/>
<path fill="#F09A47" opacity="1.000000" stroke="none" 
	d="
M864.973816,309.609863 
	C862.439453,312.843872 859.473938,315.588562 857.159424,318.802246 
	C848.129578,331.340454 847.792236,347.191284 855.989746,360.502045 
	C856.667969,361.603424 857.209717,362.788879 857.814880,363.935303 
	C857.521606,364.382812 857.228333,364.830322 856.935120,365.277802 
	C855.161743,364.176086 852.860229,363.469055 851.696472,361.911774 
	C839.563721,345.676605 845.016785,318.078491 862.653625,307.100647 
	C863.588867,307.755829 864.215271,308.545929 864.973816,309.609863 
z"/>
<path fill="#F09B49" opacity="1.000000" stroke="none" 
	d="
M779.156738,284.472595 
	C786.837219,295.547089 794.378296,306.989777 801.938904,318.419556 
	C804.130310,321.732544 806.580139,324.895294 808.512329,328.350128 
	C809.447449,330.022034 809.459290,332.210266 809.889160,334.164734 
	C809.378235,334.323364 808.867310,334.481995 808.356384,334.640656 
	C800.455933,323.514008 792.555420,312.387390 784.348389,301.121277 
	C782.767578,298.878296 780.987671,296.917908 780.342102,294.636536 
	C779.453613,291.496826 779.422852,288.114380 779.156738,284.472595 
z"/>
<path fill="#F09A47" opacity="1.000000" stroke="none" 
	d="
M810.140442,258.456390 
	C821.012634,273.835144 831.766907,289.640503 842.521240,305.445892 
	C842.206116,305.905273 841.890930,306.364655 841.575806,306.824066 
	C840.248535,306.500977 838.264893,306.626221 837.692200,305.787781 
	C828.548828,292.400177 819.585754,278.889435 810.300293,265.213165 
	C810.020264,262.974060 810.021423,260.928528 810.140442,258.456390 
z"/>
<path fill="#F09A47" opacity="1.000000" stroke="none" 
	d="
M791.622742,265.029602 
	C795.129395,270.547577 797.998779,276.491058 801.579895,281.969299 
	C808.754211,292.944305 816.336487,303.652161 823.689758,314.511322 
	C824.380859,315.531921 824.640991,316.844299 825.101196,318.021210 
	C824.682495,318.432892 824.263855,318.844543 823.845154,319.256226 
	C822.520264,318.087036 820.892151,317.127197 819.917725,315.716034 
	C810.961426,302.745087 802.118347,289.695984 793.043701,276.513672 
	C790.470032,272.911102 788.423035,269.419067 791.622742,265.029602 
z"/>
<path fill="#F9F9F9" opacity="1.000000" stroke="none" 
	d="
M621.365845,330.432739 
	C620.477478,332.430664 619.763733,334.075623 618.976807,335.889435 
	C613.274170,331.781677 607.922241,327.926575 602.363586,323.922516 
	C605.281433,312.157349 608.211914,300.341034 611.130981,288.570953 
	C617.879639,288.570953 624.329285,288.570953 631.330322,288.570953 
	C630.069824,303.061707 626.618835,316.752625 621.365845,330.432739 
z"/>
</svg>