<svg version="1.1" id="Layer_1" xmlns="http://www.w3.org/2000/svg" xmlns:xlink="http://www.w3.org/1999/xlink" x="0px" y="0px"
	 width="100%" viewBox="0 0 1080 1080" enable-background="new 0 0 1080 1080" xml:space="preserve">
<path fill="none" opacity="1.000000" stroke="none" 
	d="
M606.000000,1081.000000 
	C404.023254,1081.000000 202.546509,1081.000000 1.034878,1081.000000 
	C1.034878,721.064819 1.034878,361.129578 1.034878,1.097191 
	C360.893646,1.097191 720.787354,1.097191 1080.840576,1.097191 
	C1080.840576,360.999939 1080.840576,720.999939 1080.840576,1081.000000 
	C922.795837,1081.000000 764.647888,1081.000000 606.000000,1081.000000 
M141.869095,617.121094 
	C138.662399,623.125793 135.139328,628.984924 132.298874,635.158142 
	C108.806046,686.216125 103.717598,739.215942 116.359299,793.868896 
	C121.629204,816.651978 130.046432,838.287659 142.610977,858.964722 
	C143.261719,860.124939 143.870422,861.311218 144.569275,862.441711 
	C170.191833,903.890808 204.833603,935.332275 248.987747,956.066528 
	C300.550018,980.279663 354.272369,984.828003 409.331879,971.698853 
	C453.432739,961.182739 491.322601,938.997314 523.150024,906.670166 
	C537.445923,892.149658 550.099609,876.327698 560.218506,857.838501 
	C573.757874,834.847717 583.082825,810.197205 588.010010,784.036377 
	C595.459534,744.483398 593.852051,705.242188 581.982849,666.644592 
	C576.600342,649.141541 569.686646,632.258850 559.782532,616.058472 
	C531.418457,567.876465 491.310944,533.130676 439.370209,512.635803 
	C389.440063,492.934235 338.238159,490.539368 286.470886,504.751129 
	C243.043610,516.673279 206.063309,539.552368 175.154449,572.213562 
	C162.421051,585.668884 151.158173,600.279175 141.869095,617.121094 
M875.768127,136.790588 
	C853.498657,127.991074 830.319458,124.150887 806.450684,124.147697 
	C717.634888,124.135811 628.818970,124.084625 540.003357,124.222618 
	C529.874146,124.238350 519.653870,124.684814 509.633850,126.072426 
	C458.261566,133.186691 416.813507,157.655640 385.983276,199.268234 
	C353.238922,243.464355 344.979218,293.540894 354.012146,346.748077 
	C368.232300,430.509827 442.657684,494.302307 527.401062,495.945374 
	C554.052734,496.462128 580.721008,496.128998 607.381653,496.184082 
	C609.121765,496.187653 610.861877,496.184509 613.018127,496.184509 
	C612.295959,498.253448 611.827942,499.648560 611.323792,501.030457 
	C603.065857,523.665405 594.804504,546.299133 586.541443,568.932312 
	C581.583496,582.512451 576.540894,596.063110 571.775696,609.710571 
	C571.254639,611.202820 571.744202,614.053833 572.807678,614.812073 
	C573.882996,615.578674 576.307495,614.705383 578.036194,614.195435 
	C578.889160,613.943787 579.506531,612.892639 580.229675,612.202332 
	C619.757935,574.466064 659.259460,536.701660 698.900757,499.084412 
	C700.696045,497.380768 703.748962,496.156616 706.224182,496.142792 
	C740.216370,495.952454 774.210144,495.977570 808.203369,496.025574 
	C837.167786,496.066498 864.977600,490.315491 890.496887,476.711517 
	C952.465149,443.677094 986.858154,392.155212 991.487122,321.636780 
	C994.101990,281.800415 985.421692,244.557999 964.157227,210.565414 
	C942.914368,176.607269 913.550476,152.210083 875.768127,136.790588 
z"/>
<path fill="#FFC400" opacity="1.000000" stroke="none" 
	d="
M142.398254,858.269470 
	C130.046432,838.287659 121.629204,816.651978 116.359299,793.868896 
	C103.717598,739.215942 108.806046,686.216125 132.298874,635.158142 
	C135.139328,628.984924 138.662399,623.125793 142.609711,616.942627 
	C144.515121,616.787598 145.679932,616.831482 146.844742,616.831543 
	C283.181427,616.834839 419.518097,616.835144 555.854797,616.829590 
	C557.184875,616.829529 558.514893,616.747620 559.844971,616.703918 
	C569.686646,632.258850 576.600342,649.141541 581.982849,666.644592 
	C593.852051,705.242188 595.459534,744.483398 588.010010,784.036377 
	C583.082825,810.197205 573.757874,834.847717 559.458435,858.003784 
	C557.865662,858.152405 557.032959,858.121033 556.200256,858.121033 
	C419.763641,858.118164 283.327026,858.117065 146.890411,858.123108 
	C145.393021,858.123169 143.895645,858.218567 142.398254,858.269470 
z"/>
<path fill="#C60C1E" opacity="1.000000" stroke="none" 
	d="
M559.813721,616.381226 
	C558.514893,616.747620 557.184875,616.829529 555.854797,616.829590 
	C419.518097,616.835144 283.181427,616.834839 146.844742,616.831543 
	C145.679932,616.831482 144.515121,616.787598 142.835587,616.705688 
	C151.158173,600.279175 162.421051,585.668884 175.154449,572.213562 
	C206.063309,539.552368 243.043610,516.673279 286.470886,504.751129 
	C338.238159,490.539368 389.440063,492.934235 439.370209,512.635803 
	C491.310944,533.130676 531.418457,567.876465 559.813721,616.381226 
z"/>
<path fill="#C60C1E" opacity="1.000000" stroke="none" 
	d="
M142.504608,858.617065 
	C143.895645,858.218567 145.393021,858.123169 146.890411,858.123108 
	C283.327026,858.117065 419.763641,858.118164 556.200256,858.121033 
	C557.032959,858.121033 557.865662,858.152405 559.220581,858.214966 
	C550.099609,876.327698 537.445923,892.149658 523.150024,906.670166 
	C491.322601,938.997314 453.432739,961.182739 409.331879,971.698853 
	C354.272369,984.828003 300.550018,980.279663 248.987747,956.066528 
	C204.833603,935.332275 170.191833,903.890808 144.569275,862.441711 
	C143.870422,861.311218 143.261719,860.124939 142.504608,858.617065 
z"/>
<path fill="#030607" opacity="1.000000" stroke="none" 
	d="
M876.133789,136.914062 
	C913.550476,152.210083 942.914368,176.607269 964.157227,210.565414 
	C985.421692,244.557999 994.101990,281.800415 991.487122,321.636780 
	C986.858154,392.155212 952.465149,443.677094 890.496887,476.711517 
	C864.977600,490.315491 837.167786,496.066498 808.203369,496.025574 
	C774.210144,495.977570 740.216370,495.952454 706.224182,496.142792 
	C703.748962,496.156616 700.696045,497.380768 698.900757,499.084412 
	C659.259460,536.701660 619.757935,574.466064 580.229675,612.202332 
	C579.506531,612.892639 578.889160,613.943787 578.036194,614.195435 
	C576.307495,614.705383 573.882996,615.578674 572.807678,614.812073 
	C571.744202,614.053833 571.254639,611.202820 571.775696,609.710571 
	C576.540894,596.063110 581.583496,582.512451 586.541443,568.932312 
	C594.804504,546.299133 603.065857,523.665405 611.323792,501.030457 
	C611.827942,499.648560 612.295959,498.253448 613.018127,496.184509 
	C610.861877,496.184509 609.121765,496.187653 607.381653,496.184082 
	C580.721008,496.128998 554.052734,496.462128 527.401062,495.945374 
	C442.657684,494.302307 368.232300,430.509827 354.012146,346.748077 
	C344.979218,293.540894 353.238922,243.464355 385.983276,199.268234 
	C416.813507,157.655640 458.261566,133.186691 509.633850,126.072426 
	C519.653870,124.684814 529.874146,124.238350 540.003357,124.222618 
	C628.818970,124.084625 717.634888,124.135811 806.450684,124.147697 
	C830.319458,124.150887 853.498657,127.991074 876.133789,136.914062 
M587.096375,595.342163 
	C623.280151,560.863159 659.431946,526.350464 695.737793,492.000519 
	C697.638672,490.202057 700.843201,488.881744 703.450195,488.865692 
	C737.107483,488.658356 770.767212,488.849640 804.424561,488.649994 
	C813.722900,488.594818 823.078430,488.084473 832.299744,486.924713 
	C868.849121,482.327759 901.137756,467.614655 927.653381,442.274384 
	C980.013916,392.234558 995.560364,330.528931 977.879883,261.550354 
	C957.817383,183.278290 886.735168,131.691132 808.925110,131.940308 
	C717.114807,132.234314 625.302795,131.958786 533.491699,132.092957 
	C525.040894,132.105301 516.517822,132.791626 508.154144,134.021072 
	C461.193420,140.924088 423.138977,163.545349 394.337555,200.992218 
	C360.487061,245.003784 351.215363,295.452393 362.451721,348.696686 
	C376.524109,415.379730 417.736725,459.369324 482.447540,481.074097 
	C499.980469,486.954803 518.197083,488.528107 536.525757,488.673737 
	C563.350952,488.886902 590.179077,488.714447 617.005981,488.742828 
	C622.025635,488.748138 623.327332,490.546844 621.868591,495.206207 
	C621.522705,496.311066 621.064392,497.380463 620.666504,498.469391 
	C608.957703,530.513306 597.249939,562.557739 585.158447,595.068237 
	C585.108582,595.633545 585.058655,596.198853 585.008728,596.764160 
	C585.307495,596.999390 585.606201,597.234558 585.904968,597.469788 
	C586.122925,596.897400 586.340881,596.324951 587.096375,595.342163 
z"/>
<path fill="#FEFEFF" opacity="1.000000" stroke="none" 
	d="
M585.542114,594.602051 
	C597.249939,562.557739 608.957703,530.513306 620.666504,498.469391 
	C621.064392,497.380463 621.522705,496.311066 621.868591,495.206207 
	C623.327332,490.546844 622.025635,488.748138 617.005981,488.742828 
	C590.179077,488.714447 563.350952,488.886902 536.525757,488.673737 
	C518.197083,488.528107 499.980469,486.954803 482.447540,481.074097 
	C417.736725,459.369324 376.524109,415.379730 362.451721,348.696686 
	C351.215363,295.452393 360.487061,245.003784 394.337555,200.992218 
	C423.138977,163.545349 461.193420,140.924088 508.154144,134.021072 
	C516.517822,132.791626 525.040894,132.105301 533.491699,132.092957 
	C625.302795,131.958786 717.114807,132.234314 808.925110,131.940308 
	C886.735168,131.691132 957.817383,183.278290 977.879883,261.550354 
	C995.560364,330.528931 980.013916,392.234558 927.653381,442.274384 
	C901.137756,467.614655 868.849121,482.327759 832.299744,486.924713 
	C823.078430,488.084473 813.722900,488.594818 804.424561,488.649994 
	C770.767212,488.849640 737.107483,488.658356 703.450195,488.865692 
	C700.843201,488.881744 697.638672,490.202057 695.737793,492.000519 
	C659.431946,526.350464 623.280151,560.863159 586.585693,595.248901 
	C585.897461,594.971130 585.719849,594.786560 585.542114,594.602051 
M861.663574,307.333679 
	C849.936646,290.253632 838.196594,273.182587 826.494019,256.085846 
	C824.180847,252.706421 821.809814,249.430618 817.056824,250.057022 
	C812.449036,250.664291 810.484924,254.064102 808.871582,258.771393 
	C808.806885,260.981720 808.742126,263.192047 808.067017,264.938019 
	C807.004333,263.690552 805.969666,262.417908 804.873901,261.200195 
	C801.106018,257.012817 795.539307,257.105072 792.165771,261.535980 
	C791.194275,262.812073 790.705627,264.455811 789.445312,266.389862 
	C789.640625,269.596893 789.835876,272.803925 789.261414,276.256958 
	C781.525818,276.637756 779.100769,278.621948 777.296143,286.322479 
	C775.400757,292.338684 779.985291,296.266907 781.246826,301.235077 
	C776.969543,300.688477 773.058594,302.297180 771.889893,306.111176 
	C771.024963,308.933899 771.755737,313.123474 773.384094,315.679413 
	C780.235046,326.433014 787.690369,336.801483 794.924194,347.311157 
	C801.284302,356.551361 807.643982,365.791870 813.181030,375.067688 
	C811.903564,374.735382 810.632874,374.145386 809.347534,374.111633 
	C799.263611,373.846558 791.890320,368.655701 785.483276,361.433563 
	C780.410645,355.715454 778.257690,348.955963 777.117310,341.565857 
	C776.871765,339.974487 774.317566,338.739349 772.826782,337.340088 
	C771.620972,339.087738 770.004333,340.695679 769.346619,342.629730 
	C768.868286,344.036163 769.718567,345.867828 769.871460,347.519623 
	C771.680054,367.066498 787.606934,381.831116 807.176025,382.079773 
	C813.782166,382.163727 814.235596,381.690796 814.642761,375.115295 
	C827.760864,387.442200 843.301147,392.183319 860.677185,387.763123 
	C890.899292,380.075073 904.426086,351.108459 895.929810,325.136261 
	C890.353821,308.091125 883.423523,291.489136 877.100891,274.688232 
	C875.109192,269.395752 871.625977,267.142517 867.376099,268.402985 
	C862.103943,269.966644 860.320923,273.330322 861.510437,279.231598 
	C863.282593,288.023804 864.988403,296.829376 866.726624,305.628418 
	C867.299561,308.528778 866.375488,310.198334 862.908813,309.454346 
	C862.552490,308.960724 862.196106,308.467102 861.663574,307.333679 
M527.180176,372.018982 
	C531.111450,372.026428 529.499390,368.990387 529.504517,367.285675 
	C529.600342,335.458313 529.577698,303.630585 529.565857,271.802917 
	C529.565308,270.336609 529.433472,268.870361 529.359619,267.339172 
	C525.186768,267.339172 521.299500,267.339172 517.013672,267.339172 
	C517.013672,281.594299 517.013672,295.533813 517.013672,309.475433 
	C498.826935,309.475433 481.049286,309.475433 462.819031,309.475433 
	C462.819031,295.348663 462.819031,281.422150 462.819031,267.275208 
	C458.470856,267.275208 454.577728,267.275208 450.531464,267.275208 
	C450.531464,302.260895 450.531464,336.989227 450.531464,371.704803 
	C454.727234,371.704803 458.633179,371.704803 463.046082,371.704803 
	C463.046082,354.350159 463.046082,337.305023 463.046082,320.358643 
	C481.324005,320.358643 499.080200,320.358643 517.306152,320.358643 
	C517.306152,337.697021 517.306152,354.766388 517.306152,372.020111 
	C520.602661,372.020111 523.426697,372.020111 527.180176,372.018982 
M715.086548,373.314148 
	C724.373474,373.082275 731.364319,368.716980 736.308960,360.526855 
	C741.692749,372.306030 749.952271,375.679718 759.074341,370.250031 
	C758.580811,367.794464 758.071045,365.258057 757.572144,362.775726 
	C748.521667,363.273834 747.622498,362.401489 747.591309,353.442413 
	C747.584351,351.444489 747.607056,349.446350 747.586731,347.448608 
	C747.461548,335.134186 747.577515,322.810242 747.101501,310.509216 
	C746.826050,303.390442 743.073792,297.961884 736.651123,294.611267 
	C722.114807,287.027679 700.126160,292.079956 689.948608,305.539764 
	C691.913452,308.177612 693.931091,310.886169 696.712036,314.619537 
	C697.997925,312.773865 698.723267,311.444641 699.713806,310.356964 
	C707.192322,302.144653 716.704041,300.440887 727.101257,302.237915 
	C732.327881,303.141235 735.405457,306.809326 735.796509,311.791626 
	C736.189880,316.803009 733.705627,320.032318 729.225647,321.808014 
	C726.921021,322.721527 724.522949,323.444275 722.114746,324.042572 
	C715.838196,325.602081 709.360596,326.544373 703.273682,328.636322 
	C689.384216,333.409851 683.935242,345.427429 688.805908,359.357605 
	C692.238281,369.174469 700.582642,373.775726 715.086548,373.314148 
M627.723572,334.358124 
	C627.483521,330.543976 627.423523,326.708435 626.973022,322.919281 
	C624.749878,304.217163 612.237244,292.601807 593.086182,291.326630 
	C574.172302,290.067291 559.708557,300.196869 555.955444,318.741486 
	C554.342285,326.712006 554.268555,335.320587 555.256897,343.424408 
	C557.441711,361.339874 569.974854,372.158508 588.298462,373.383423 
	C606.820312,374.621552 620.685547,365.495117 625.516235,348.529205 
	C626.733521,344.254089 626.993835,339.706482 627.723572,334.358124 
M661.792114,300.500122 
	C661.792114,287.421021 661.792114,274.341888 661.792114,261.233887 
	C657.556885,261.233887 653.961975,261.233887 649.985352,261.233887 
	C649.985352,263.066467 649.985352,264.690155 649.985352,266.313812 
	C649.985352,288.938599 649.982178,311.563416 649.987122,334.188202 
	C649.988770,341.674164 649.767090,349.170319 650.077576,356.643921 
	C650.653503,370.508240 664.700806,378.183319 676.833008,371.219818 
	C676.304260,368.295593 675.763855,365.307281 675.228271,362.345276 
	C664.138977,364.095795 661.810730,362.109741 661.797607,351.407837 
	C661.777161,334.771973 661.792114,318.136078 661.792114,300.500122 
M876.857056,265.521393 
	C885.882935,271.984802 891.000916,280.607300 892.047485,291.786713 
	C892.193848,293.350555 894.564209,295.681915 896.169250,295.926758 
	C899.341980,296.410828 900.135254,293.840515 900.065063,290.968262 
	C899.543396,269.608978 884.262573,252.217575 860.203247,251.669098 
	C858.542908,251.631241 856.818909,254.384460 855.124512,255.839706 
	C856.706665,257.198792 858.077026,259.116211 859.910889,259.811615 
	C865.257263,261.838928 870.788940,263.377838 876.857056,265.521393 
M769.401001,382.095917 
	C774.838928,387.536224 781.406067,390.505157 789.085144,390.046753 
	C790.757690,389.946899 792.293213,387.551575 793.891907,386.213470 
	C792.447937,384.859222 791.187439,382.636444 789.531250,382.286621 
	C774.780334,379.170593 772.154968,376.801514 769.344360,362.553986 
	C768.804199,359.815582 767.843323,357.118683 764.800598,358.195831 
	C763.168945,358.773438 761.358032,361.772552 761.403687,363.635468 
	C761.570679,370.453552 763.987915,376.607910 769.401001,382.095917 
M900.308167,252.206711 
	C894.841125,246.866974 888.322815,244.029373 880.648315,243.898132 
	C878.086304,243.854324 875.409363,244.378265 876.007080,247.440491 
	C876.338257,249.137314 878.581787,251.435059 880.271973,251.737595 
	C893.228760,254.056870 897.485291,258.225128 900.042908,271.052612 
	C900.415466,272.921112 902.878540,274.372772 904.374268,276.017334 
	C905.559448,274.150269 907.759277,272.276733 907.747375,270.417297 
	C907.705078,263.765808 905.208618,257.810608 900.308167,252.206711 
z"/>
<path fill="#FEFEFF" opacity="1.000000" stroke="none" 
	d="
M586.316956,595.454102 
	C586.340881,596.324951 586.122925,596.897400 585.904968,597.469788 
	C585.606201,597.234558 585.307495,596.999390 585.008728,596.764160 
	C585.058655,596.198853 585.108582,595.633545 585.350342,594.835144 
	C585.719849,594.786560 585.897461,594.971130 586.316956,595.454102 
z"/>
<path fill="#FFDC5E" opacity="1.000000" stroke="none" 
	d="
M789.995544,265.930969 
	C790.705627,264.455811 791.194275,262.812073 792.165771,261.535980 
	C795.539307,257.105072 801.106018,257.012817 804.873901,261.200195 
	C805.969666,262.417908 807.004333,263.690552 808.531250,265.365265 
	C818.149963,279.437439 827.263184,293.110657 836.562744,306.656006 
	C837.113525,307.458282 839.161743,307.232544 840.513123,307.485168 
	C840.688843,306.993225 840.864563,306.501251 841.040283,306.009308 
	C837.877747,301.363953 834.662659,296.753418 831.563232,292.066406 
	C824.073059,280.739471 816.636841,269.376801 809.178894,258.028534 
	C810.484924,254.064102 812.449036,250.664291 817.056824,250.057022 
	C821.809814,249.430618 824.180847,252.706421 826.494019,256.085846 
	C838.196594,273.182587 849.936646,290.253632 861.423157,307.710999 
	C852.538086,314.168365 846.954895,322.216400 844.856140,332.701935 
	C842.890625,342.521393 843.934143,351.850861 848.888855,360.572418 
	C850.307678,363.069855 851.748169,366.182953 856.468506,365.347351 
	C855.346741,363.030182 854.459412,361.140991 853.524597,359.275635 
	C847.202515,346.660675 846.770081,334.140289 854.465759,321.942596 
	C857.085815,317.789886 860.247131,313.978668 863.161133,310.011414 
	C866.375488,310.198334 867.299561,308.528778 866.726624,305.628418 
	C864.988403,296.829376 863.282593,288.023804 861.510437,279.231598 
	C860.320923,273.330322 862.103943,269.966644 867.376099,268.402985 
	C871.625977,267.142517 875.109192,269.395752 877.100891,274.688232 
	C883.423523,291.489136 890.353821,308.091125 895.929810,325.136261 
	C904.426086,351.108459 890.899292,380.075073 860.677185,387.763123 
	C843.301147,392.183319 827.760864,387.442200 814.324707,375.054443 
	C814.006653,374.993622 814.003845,375.032257 814.003845,375.032257 
	C807.643982,365.791870 801.284302,356.551361 794.924194,347.311157 
	C787.690369,336.801483 780.235046,326.433014 773.384094,315.679413 
	C771.755737,313.123474 771.024963,308.933899 771.889893,306.111176 
	C773.058594,302.297180 776.969543,300.688477 781.613220,301.118286 
	C781.979614,301.001465 781.987549,300.949402 782.000488,301.203247 
	C782.303162,301.623993 782.592773,301.790833 783.199585,302.095276 
	C791.240295,313.237457 798.963745,324.242035 806.687256,335.246613 
	C807.359619,334.957764 808.031982,334.668945 808.704407,334.380096 
	C808.291016,332.842194 808.243896,331.061005 807.408508,329.803436 
	C797.601135,315.040192 787.675537,300.355499 777.781067,285.650085 
	C779.100769,278.621948 781.525818,276.637756 789.620728,276.129333 
	C789.980042,276.001709 789.985718,275.949219 790.032593,276.258728 
	C790.460266,276.731628 790.841187,276.895020 791.478760,277.255096 
	C794.175476,281.009308 796.630432,284.556763 799.052673,288.126373 
	C805.579468,297.744873 812.036072,307.412109 818.681274,316.947998 
	C819.522400,318.155060 821.323303,318.693268 822.679565,319.541351 
	C822.532043,317.973328 822.819336,316.177979 822.143860,314.885864 
	C820.847473,312.406097 818.943909,310.251770 817.399109,307.892487 
	C808.247620,293.916443 799.126709,279.920349 789.995544,265.930969 
z"/>
<path fill="#0B0B0B" opacity="1.000000" stroke="none" 
	d="
M526.715454,372.019531 
	C523.426697,372.020111 520.602661,372.020111 517.306152,372.020111 
	C517.306152,354.766388 517.306152,337.697021 517.306152,320.358643 
	C499.080200,320.358643 481.324005,320.358643 463.046082,320.358643 
	C463.046082,337.305023 463.046082,354.350159 463.046082,371.704803 
	C458.633179,371.704803 454.727234,371.704803 450.531464,371.704803 
	C450.531464,336.989227 450.531464,302.260895 450.531464,267.275208 
	C454.577728,267.275208 458.470856,267.275208 462.819031,267.275208 
	C462.819031,281.422150 462.819031,295.348663 462.819031,309.475433 
	C481.049286,309.475433 498.826935,309.475433 517.013672,309.475433 
	C517.013672,295.533813 517.013672,281.594299 517.013672,267.339172 
	C521.299500,267.339172 525.186768,267.339172 529.359619,267.339172 
	C529.433472,268.870361 529.565308,270.336609 529.565857,271.802917 
	C529.577698,303.630585 529.600342,335.458313 529.504517,367.285675 
	C529.499390,368.990387 531.111450,372.026428 526.715454,372.019531 
z"/>
<path fill="#080808" opacity="1.000000" stroke="none" 
	d="
M714.653748,373.343079 
	C700.582642,373.775726 692.238281,369.174469 688.805908,359.357605 
	C683.935242,345.427429 689.384216,333.409851 703.273682,328.636322 
	C709.360596,326.544373 715.838196,325.602081 722.114746,324.042572 
	C724.522949,323.444275 726.921021,322.721527 729.225647,321.808014 
	C733.705627,320.032318 736.189880,316.803009 735.796509,311.791626 
	C735.405457,306.809326 732.327881,303.141235 727.101257,302.237915 
	C716.704041,300.440887 707.192322,302.144653 699.713806,310.356964 
	C698.723267,311.444641 697.997925,312.773865 696.712036,314.619537 
	C693.931091,310.886169 691.913452,308.177612 689.948608,305.539764 
	C700.126160,292.079956 722.114807,287.027679 736.651123,294.611267 
	C743.073792,297.961884 746.826050,303.390442 747.101501,310.509216 
	C747.577515,322.810242 747.461548,335.134186 747.586731,347.448608 
	C747.607056,349.446350 747.584351,351.444489 747.591309,353.442413 
	C747.622498,362.401489 748.521667,363.273834 757.572144,362.775726 
	C758.071045,365.258057 758.580811,367.794464 759.074341,370.250031 
	C749.952271,375.679718 741.692749,372.306030 736.308960,360.526855 
	C731.364319,368.716980 724.373474,373.082275 714.653748,373.343079 
M700.587646,356.572449 
	C703.142639,358.764008 705.354431,361.853516 708.314636,362.984955 
	C718.721008,366.962402 730.490601,361.827515 733.830505,351.253784 
	C735.945007,344.559509 735.921509,337.189911 736.842407,330.233002 
	C728.077698,332.270142 720.571472,333.993927 713.075684,335.761810 
	C701.101318,338.585876 697.692017,343.940063 700.587646,356.572449 
z"/>
<path fill="#060606" opacity="1.000000" stroke="none" 
	d="
M627.708740,334.821106 
	C626.993835,339.706482 626.733521,344.254089 625.516235,348.529205 
	C620.685547,365.495117 606.820312,374.621552 588.298462,373.383423 
	C569.974854,372.158508 557.441711,361.339874 555.256897,343.424408 
	C554.268555,335.320587 554.342285,326.712006 555.955444,318.741486 
	C559.708557,300.196869 574.172302,290.067291 593.086182,291.326630 
	C612.237244,292.601807 624.749878,304.217163 626.973022,322.919281 
	C627.423523,326.708435 627.483521,330.543976 627.708740,334.821106 
M598.256409,362.092407 
	C606.054932,360.138824 610.924805,355.127869 613.187073,347.543945 
	C616.110779,337.742371 616.137634,327.803619 613.419067,318.023773 
	C610.343201,306.958801 602.434204,301.741486 590.112366,301.922180 
	C578.803467,302.088013 570.567688,307.819763 568.297424,318.601135 
	C566.882019,325.323090 566.600891,332.475677 567.034790,339.357819 
	C568.148682,357.027161 580.096375,365.764648 598.256409,362.092407 
z"/>
<path fill="#060606" opacity="1.000000" stroke="none" 
	d="
M661.792114,301.000153 
	C661.792114,318.136078 661.777161,334.771973 661.797607,351.407837 
	C661.810730,362.109741 664.138977,364.095795 675.228271,362.345276 
	C675.763855,365.307281 676.304260,368.295593 676.833008,371.219818 
	C664.700806,378.183319 650.653503,370.508240 650.077576,356.643921 
	C649.767090,349.170319 649.988770,341.674164 649.987122,334.188202 
	C649.982178,311.563416 649.985352,288.938599 649.985352,266.313812 
	C649.985352,264.690155 649.985352,263.066467 649.985352,261.233887 
	C653.961975,261.233887 657.556885,261.233887 661.792114,261.233887 
	C661.792114,274.341888 661.792114,287.421021 661.792114,301.000153 
z"/>
<path fill="#62AFED" opacity="1.000000" stroke="none" 
	d="
M813.987305,374.995056 
	C814.235596,381.690796 813.782166,382.163727 807.176025,382.079773 
	C787.606934,381.831116 771.680054,367.066498 769.871460,347.519623 
	C769.718567,345.867828 768.868286,344.036163 769.346619,342.629730 
	C770.004333,340.695679 771.620972,339.087738 772.826782,337.340088 
	C774.317566,338.739349 776.871765,339.974487 777.117310,341.565857 
	C778.257690,348.955963 780.410645,355.715454 785.483276,361.433563 
	C791.890320,368.655701 799.263611,373.846558 809.347534,374.111633 
	C810.632874,374.145386 811.903564,374.735382 813.592407,375.049988 
	C814.003845,375.032257 814.006653,374.993622 813.987305,374.995056 
z"/>
<path fill="#61AFEC" opacity="1.000000" stroke="none" 
	d="
M876.552490,265.314819 
	C870.788940,263.377838 865.257263,261.838928 859.910889,259.811615 
	C858.077026,259.116211 856.706665,257.198792 855.124512,255.839706 
	C856.818909,254.384460 858.542908,251.631241 860.203247,251.669098 
	C884.262573,252.217575 899.543396,269.608978 900.065063,290.968262 
	C900.135254,293.840515 899.341980,296.410828 896.169250,295.926758 
	C894.564209,295.681915 892.193848,293.350555 892.047485,291.786713 
	C891.000916,280.607300 885.882935,271.984802 876.552490,265.314819 
z"/>
<path fill="#62AFED" opacity="1.000000" stroke="none" 
	d="
M769.156494,381.834656 
	C763.987915,376.607910 761.570679,370.453552 761.403687,363.635468 
	C761.358032,361.772552 763.168945,358.773438 764.800598,358.195831 
	C767.843323,357.118683 768.804199,359.815582 769.344360,362.553986 
	C772.154968,376.801514 774.780334,379.170593 789.531250,382.286621 
	C791.187439,382.636444 792.447937,384.859222 793.891907,386.213470 
	C792.293213,387.551575 790.757690,389.946899 789.085144,390.046753 
	C781.406067,390.505157 774.838928,387.536224 769.156494,381.834656 
z"/>
<path fill="#62AFED" opacity="1.000000" stroke="none" 
	d="
M900.536743,252.482697 
	C905.208618,257.810608 907.705078,263.765808 907.747375,270.417297 
	C907.759277,272.276733 905.559448,274.150269 904.374268,276.017334 
	C902.878540,274.372772 900.415466,272.921112 900.042908,271.052612 
	C897.485291,258.225128 893.228760,254.056870 880.271973,251.737595 
	C878.581787,251.435059 876.338257,249.137314 876.007080,247.440491 
	C875.409363,244.378265 878.086304,243.854324 880.648315,243.898132 
	C888.322815,244.029373 894.841125,246.866974 900.536743,252.482697 
z"/>
<path fill="#F09946" opacity="1.000000" stroke="none" 
	d="
M863.034973,309.732880 
	C860.247131,313.978668 857.085815,317.789886 854.465759,321.942596 
	C846.770081,334.140289 847.202515,346.660675 853.524597,359.275635 
	C854.459412,361.140991 855.346741,363.030182 856.468506,365.347351 
	C851.748169,366.182953 850.307678,363.069855 848.888855,360.572418 
	C843.934143,351.850861 842.890625,342.521393 844.856140,332.701935 
	C846.954895,322.216400 852.538086,314.168365 861.511230,308.030884 
	C862.196106,308.467102 862.552490,308.960724 863.034973,309.732880 
z"/>
<path fill="#F09B48" opacity="1.000000" stroke="none" 
	d="
M789.720459,266.160400 
	C799.126709,279.920349 808.247620,293.916443 817.399109,307.892487 
	C818.943909,310.251770 820.847473,312.406097 822.143860,314.885864 
	C822.819336,316.177979 822.532043,317.973328 822.679565,319.541351 
	C821.323303,318.693268 819.522400,318.155060 818.681274,316.947998 
	C812.036072,307.412109 805.579468,297.744873 799.052673,288.126373 
	C796.630432,284.556763 794.175476,281.009308 791.324951,277.007385 
	C790.604797,276.358398 790.295288,276.153809 789.985718,275.949219 
	C789.985718,275.949219 789.980042,276.001709 790.005615,276.006348 
	C789.835876,272.803925 789.640625,269.596893 789.720459,266.160400 
z"/>
<path fill="#F09A47" opacity="1.000000" stroke="none" 
	d="
M809.025269,258.399963 
	C816.636841,269.376801 824.073059,280.739471 831.563232,292.066406 
	C834.662659,296.753418 837.877747,301.363953 841.040283,306.009308 
	C840.864563,306.501251 840.688843,306.993225 840.513123,307.485168 
	C839.161743,307.232544 837.113525,307.458282 836.562744,306.656006 
	C827.263184,293.110657 818.149963,279.437439 808.836426,265.597443 
	C808.742126,263.192047 808.806885,260.981720 809.025269,258.399963 
z"/>
<path fill="#F09A48" opacity="1.000000" stroke="none" 
	d="
M777.538574,285.986267 
	C787.675537,300.355499 797.601135,315.040192 807.408508,329.803436 
	C808.243896,331.061005 808.291016,332.842194 808.704407,334.380096 
	C808.031982,334.668945 807.359619,334.957764 806.687256,335.246613 
	C798.963745,324.242035 791.240295,313.237457 783.150879,301.853088 
	C782.616516,301.150574 782.350708,300.975952 781.987549,300.949402 
	C781.987549,300.949402 781.979614,301.001465 782.004761,301.007507 
	C779.985291,296.266907 775.400757,292.338684 777.538574,285.986267 
z"/>
<path fill="#FEFEFF" opacity="1.000000" stroke="none" 
	d="
M790.032593,276.258728 
	C790.295288,276.153809 790.604797,276.358398 791.068237,276.810730 
	C790.841187,276.895020 790.460266,276.731628 790.032593,276.258728 
z"/>
<path fill="#FEFEFF" opacity="1.000000" stroke="none" 
	d="
M782.000488,301.203247 
	C782.350708,300.975952 782.616516,301.150574 782.833740,301.715485 
	C782.592773,301.790833 782.303162,301.623993 782.000488,301.203247 
z"/>
<path fill="#FCFCFC" opacity="1.000000" stroke="none" 
	d="
M700.405151,356.224701 
	C697.692017,343.940063 701.101318,338.585876 713.075684,335.761810 
	C720.571472,333.993927 728.077698,332.270142 736.842407,330.233002 
	C735.921509,337.189911 735.945007,344.559509 733.830505,351.253784 
	C730.490601,361.827515 718.721008,366.962402 708.314636,362.984955 
	C705.354431,361.853516 703.142639,358.764008 700.405151,356.224701 
z"/>
<path fill="#FDFDFD" opacity="1.000000" stroke="none" 
	d="
M597.847534,362.180542 
	C580.096375,365.764648 568.148682,357.027161 567.034790,339.357819 
	C566.600891,332.475677 566.882019,325.323090 568.297424,318.601135 
	C570.567688,307.819763 578.803467,302.088013 590.112366,301.922180 
	C602.434204,301.741486 610.343201,306.958801 613.419067,318.023773 
	C616.137634,327.803619 616.110779,337.742371 613.187073,347.543945 
	C610.924805,355.127869 606.054932,360.138824 597.847534,362.180542 
z"/>
</svg>